NotoSansGlagolitic-Regular.ufo
<glyph name="uni0305" format="2">
  <unicode hex="0305"/>
  <outline>
    <contour>
      <point x="-208" y="620" type="line"/>
      <point x="209" y="620" type="line"/>
      <point x="209" y="687" type="line"/>
      <point x="-208" y="687" type="line"/>
    </contour>
  </outline>
</glyph>
<glyph name="uni0487" format="2">
  <unicode hex="0487"/>
  <outline>
    <contour>
      <point x="-184" y="605" type="line"/>
      <point x="-120" y="605" type="line"/>
      <point x="-120" y="644"/>
      <point x="-102" y="663"/>
      <point x="-68" y="663" type="curve" smooth="yes"/>
      <point x="-13" y="663"/>
      <point x="59" y="608"/>
      <point x="172" y="608" type="curve" smooth="yes"/>
      <point x="180" y="608" type="line"/>
      <point x="180" y="667" type="line"/>
      <point x="174" y="667" type="line" smooth="yes"/>
      <point x="72" y="667"/>
      <point x="6" y="725"/>
      <point x="-70" y="725" type="curve" smooth="yes"/>
      <point x="-141" y="725"/>
      <point x="-184" y="692"/>
      <point x="-184" y="621" type="curve" smooth="yes"/>
    </contour>
  </outline>
</glyph>
<glyph name="uni2C00" format="2">
  <advance width="817"/>
  <unicode hex="2C00"/>
  <outline>
    <contour>
      <point x="78" y="0" type="line"/>
      <point x="168" y="0" type="line"/>
      <point x="168" y="253" type="line" smooth="yes"/>
      <point x="168" y="292"/>
      <point x="178" y="302"/>
      <point x="217" y="302" type="curve" smooth="yes"/>
      <point x="364" y="302" type="line"/>
      <point x="364" y="0" type="line"/>
      <point x="454" y="0" type="line"/>
      <point x="454" y="302" type="line"/>
      <point x="601" y="302" type="line" smooth="yes"/>
      <point x="640" y="302"/>
      <point x="649" y="292"/>
      <point x="649" y="253" type="curve" smooth="yes"/>
      <point x="649" y="0" type="line"/>
      <point x="739" y="0" type="line"/>
      <point x="739" y="283" type="line" smooth="yes"/>
      <point x="739" y="361"/>
      <point x="720" y="381"/>
      <point x="642" y="381" type="curve" smooth="yes"/>
      <point x="454" y="381" type="line"/>
      <point x="454" y="714" type="line"/>
      <point x="364" y="714" type="line"/>
      <point x="364" y="381" type="line"/>
      <point x="176" y="381" type="line" smooth="yes"/>
      <point x="98" y="381"/>
      <point x="78" y="361"/>
      <point x="78" y="283" type="curve" smooth="yes"/>
    </contour>
  </outline>
</glyph>
<glyph name="uni2C01" format="2">
  <advance width="847"/>
  <unicode hex="2C01"/>
  <outline>
    <contour>
      <point x="195" y="0" type="curve" smooth="yes"/>
      <point x="735" y="0" type="line"/>
      <point x="735" y="79" type="line"/>
      <point x="236" y="79" type="line" smooth="yes"/>
      <point x="197" y="79"/>
      <point x="188" y="84"/>
      <point x="188" y="128" type="curve" smooth="yes"/>
      <point x="188" y="304" type="line"/>
      <point x="662" y="348" type="line" smooth="yes"/>
      <point x="744" y="356"/>
      <point x="759" y="362"/>
      <point x="759" y="445" type="curve" smooth="yes"/>
      <point x="759" y="714" type="line"/>
      <point x="669" y="714" type="line"/>
      <point x="669" y="456" type="line" smooth="yes"/>
      <point x="669" y="428"/>
      <point x="655" y="425"/>
      <point x="638" y="423" type="curve" smooth="yes"/>
      <point x="473" y="408" type="line"/>
      <point x="473" y="714" type="line"/>
      <point x="383" y="714" type="line"/>
      <point x="383" y="399" type="line"/>
      <point x="188" y="381" type="line"/>
      <point x="188" y="714" type="line"/>
      <point x="98" y="714" type="line"/>
      <point x="98" y="98" type="line" smooth="yes"/>
      <point x="98" y="20"/>
      <point x="117" y="0"/>
    </contour>
  </outline>
</glyph>
<glyph name="uni2C02" format="2">
  <advance width="1063"/>
  <unicode hex="2C02"/>
  <outline>
    <contour>
      <point x="195" y="0" type="curve" smooth="yes"/>
      <point x="867" y="0" type="line" smooth="yes"/>
      <point x="945" y="0"/>
      <point x="965" y="20"/>
      <point x="965" y="98" type="curve" smooth="yes"/>
      <point x="965" y="616" type="line" smooth="yes"/>
      <point x="965" y="694"/>
      <point x="945" y="714"/>
      <point x="867" y="714" type="curve" smooth="yes"/>
      <point x="697" y="714" type="line" smooth="yes"/>
      <point x="619" y="714"/>
      <point x="600" y="694"/>
      <point x="600" y="616" type="curve" smooth="yes"/>
      <point x="600" y="79" type="line"/>
      <point x="463" y="79" type="line"/>
      <point x="463" y="616" type="line" smooth="yes"/>
      <point x="463" y="694"/>
      <point x="443" y="714"/>
      <point x="365" y="714" type="curve" smooth="yes"/>
      <point x="195" y="714" type="line" smooth="yes"/>
      <point x="117" y="714"/>
      <point x="98" y="694"/>
      <point x="98" y="616" type="curve" smooth="yes"/>
      <point x="98" y="98" type="line" smooth="yes"/>
      <point x="98" y="20"/>
      <point x="117" y="0"/>
    </contour>
    <contour>
      <point x="236" y="79" type="line" smooth="yes"/>
      <point x="197" y="79"/>
      <point x="188" y="89"/>
      <point x="188" y="128" type="curve" smooth="yes"/>
      <point x="188" y="586" type="line" smooth="yes"/>
      <point x="188" y="625"/>
      <point x="197" y="635"/>
      <point x="236" y="635" type="curve" smooth="yes"/>
      <point x="324" y="635" type="line" smooth="yes"/>
      <point x="363" y="635"/>
      <point x="373" y="625"/>
      <point x="373" y="586" type="curve" smooth="yes"/>
      <point x="373" y="79" type="line"/>
    </contour>
    <contour>
      <point x="689" y="79" type="line"/>
      <point x="689" y="586" type="line" smooth="yes"/>
      <point x="689" y="625"/>
      <point x="699" y="635"/>
      <point x="738" y="635" type="curve" smooth="yes"/>
      <point x="826" y="635" type="line" smooth="yes"/>
      <point x="865" y="635"/>
      <point x="875" y="625"/>
      <point x="875" y="586" type="curve" smooth="yes"/>
      <point x="875" y="128" type="line" smooth="yes"/>
      <point x="875" y="89"/>
      <point x="865" y="79"/>
      <point x="826" y="79" type="curve" smooth="yes"/>
    </contour>
  </outline>
</glyph>
<glyph name="uni2C03" format="2">
  <advance width="958"/>
  <unicode hex="2C03"/>
  <outline>
    <contour>
      <point x="180" y="0" type="line"/>
      <point x="267" y="0" type="line"/>
      <point x="370" y="277" type="line"/>
      <point x="377" y="276"/>
      <point x="384" y="276"/>
      <point x="392" y="276" type="curve" smooth="yes"/>
      <point x="486" y="276" type="line"/>
      <point x="486" y="98" type="line" smooth="yes"/>
      <point x="486" y="20"/>
      <point x="505" y="0"/>
      <point x="583" y="0" type="curve" smooth="yes"/>
      <point x="879" y="0" type="line"/>
      <point x="879" y="315" type="line" smooth="yes"/>
      <point x="879" y="394"/>
      <point x="860" y="413"/>
      <point x="782" y="413" type="curve" smooth="yes"/>
      <point x="583" y="413" type="line" smooth="yes"/>
      <point x="521" y="413"/>
      <point x="496" y="400"/>
      <point x="488" y="355" type="curve"/>
      <point x="399" y="355" type="line"/>
      <point x="532" y="714" type="line"/>
      <point x="146" y="714" type="line" smooth="yes"/>
      <point x="104" y="714"/>
      <point x="78" y="701"/>
      <point x="78" y="636" type="curve" smooth="yes"/>
      <point x="78" y="575" type="line" smooth="yes"/>
      <point x="78" y="442"/>
      <point x="160" y="331"/>
      <point x="289" y="292" type="curve"/>
    </contour>
    <contour>
      <point x="316" y="365" type="line"/>
      <point x="211" y="394"/>
      <point x="168" y="484"/>
      <point x="168" y="563" type="curve" smooth="yes"/>
      <point x="168" y="625"/>
      <point x="172" y="635"/>
      <point x="204" y="635" type="curve" smooth="yes"/>
      <point x="417" y="635" type="line"/>
    </contour>
    <contour>
      <point x="625" y="79" type="line" smooth="yes"/>
      <point x="585" y="79"/>
      <point x="576" y="89"/>
      <point x="576" y="128" type="curve" smooth="yes"/>
      <point x="576" y="285" type="line" smooth="yes"/>
      <point x="576" y="324"/>
      <point x="585" y="334"/>
      <point x="625" y="334" type="curve" smooth="yes"/>
      <point x="741" y="334" type="line" smooth="yes"/>
      <point x="780" y="334"/>
      <point x="790" y="324"/>
      <point x="790" y="285" type="curve" smooth="yes"/>
      <point x="790" y="79" type="line"/>
    </contour>
  </outline>
</glyph>
<glyph name="uni2C04" format="2">
  <advance width="1071"/>
  <unicode hex="2C04"/>
  <outline>
    <contour>
      <point x="195" y="0" type="curve" smooth="yes"/>
      <point x="365" y="0" type="line" smooth="yes"/>
      <point x="443" y="0"/>
      <point x="463" y="20"/>
      <point x="463" y="98" type="curve" smooth="yes"/>
      <point x="463" y="635" type="line"/>
      <point x="551" y="635" type="line" smooth="yes"/>
      <point x="590" y="635"/>
      <point x="600" y="625"/>
      <point x="600" y="586" type="curve" smooth="yes"/>
      <point x="600" y="98" type="line" smooth="yes"/>
      <point x="600" y="20"/>
      <point x="619" y="0"/>
      <point x="697" y="0" type="curve" smooth="yes"/>
      <point x="896" y="0" type="line" smooth="yes"/>
      <point x="974" y="0"/>
      <point x="993" y="20"/>
      <point x="993" y="98" type="curve" smooth="yes"/>
      <point x="993" y="331" type="line" smooth="yes"/>
      <point x="993" y="409"/>
      <point x="974" y="429"/>
      <point x="896" y="429" type="curve" smooth="yes"/>
      <point x="689" y="429" type="line"/>
      <point x="689" y="616" type="line" smooth="yes"/>
      <point x="689" y="694"/>
      <point x="670" y="714"/>
      <point x="592" y="714" type="curve" smooth="yes"/>
      <point x="195" y="714" type="line" smooth="yes"/>
      <point x="117" y="714"/>
      <point x="98" y="694"/>
      <point x="98" y="616" type="curve" smooth="yes"/>
      <point x="98" y="98" type="line" smooth="yes"/>
      <point x="98" y="20"/>
      <point x="117" y="0"/>
    </contour>
    <contour>
      <point x="236" y="79" type="line" smooth="yes"/>
      <point x="197" y="79"/>
      <point x="188" y="89"/>
      <point x="188" y="128" type="curve" smooth="yes"/>
      <point x="188" y="586" type="line" smooth="yes"/>
      <point x="188" y="625"/>
      <point x="197" y="635"/>
      <point x="236" y="635" type="curve" smooth="yes"/>
      <point x="373" y="635" type="line"/>
      <point x="373" y="128" type="line" smooth="yes"/>
      <point x="373" y="89"/>
      <point x="363" y="79"/>
      <point x="324" y="79" type="curve" smooth="yes"/>
    </contour>
    <contour>
      <point x="738" y="79" type="line" smooth="yes"/>
      <point x="699" y="79"/>
      <point x="689" y="89"/>
      <point x="689" y="128" type="curve" smooth="yes"/>
      <point x="689" y="350" type="line"/>
      <point x="854" y="350" type="line" smooth="yes"/>
      <point x="894" y="350"/>
      <point x="903" y="340"/>
      <point x="903" y="301" type="curve" smooth="yes"/>
      <point x="903" y="128" type="line" smooth="yes"/>
      <point x="903" y="89"/>
      <point x="894" y="79"/>
      <point x="854" y="79" type="curve" smooth="yes"/>
    </contour>
  </outline>
</glyph>
<glyph name="uni2C05" format="2">
  <advance width="658"/>
  <unicode hex="2C05"/>
  <outline>
    <contour>
      <point x="245" y="-10" type="curve" smooth="yes"/>
      <point x="477" y="-10"/>
      <point x="590" y="136"/>
      <point x="590" y="369" type="curve" smooth="yes"/>
      <point x="590" y="573"/>
      <point x="481" y="724"/>
      <point x="252" y="724" type="curve" smooth="yes"/>
      <point x="177" y="724"/>
      <point x="104" y="709"/>
      <point x="49" y="682" type="curve"/>
      <point x="86" y="607" type="line"/>
      <point x="130" y="627"/>
      <point x="184" y="645"/>
      <point x="251" y="645" type="curve" smooth="yes"/>
      <point x="389" y="645"/>
      <point x="481" y="559"/>
      <point x="494" y="413" type="curve"/>
      <point x="148" y="413" type="line"/>
      <point x="148" y="334" type="line"/>
      <point x="495" y="334" type="line"/>
      <point x="490" y="163"/>
      <point x="403" y="69"/>
      <point x="231" y="69" type="curve" smooth="yes"/>
      <point x="167" y="69"/>
      <point x="111" y="82"/>
      <point x="55" y="97" type="curve"/>
      <point x="55" y="19" type="line"/>
      <point x="111" y="-1"/>
      <point x="162" y="-10"/>
    </contour>
  </outline>
</glyph>
<glyph name="uni2C06" format="2">
  <advance width="1063"/>
  <unicode hex="2C06"/>
  <outline>
    <contour>
      <point x="195" y="0" type="curve" smooth="yes"/>
      <point x="365" y="0" type="line" smooth="yes"/>
      <point x="443" y="0"/>
      <point x="463" y="20"/>
      <point x="463" y="98" type="curve" smooth="yes"/>
      <point x="463" y="635" type="line"/>
      <point x="600" y="635" type="line"/>
      <point x="600" y="98" type="line" smooth="yes"/>
      <point x="600" y="20"/>
      <point x="619" y="0"/>
      <point x="697" y="0" type="curve" smooth="yes"/>
      <point x="867" y="0" type="line" smooth="yes"/>
      <point x="945" y="0"/>
      <point x="965" y="20"/>
      <point x="965" y="98" type="curve" smooth="yes"/>
      <point x="965" y="616" type="line" smooth="yes"/>
      <point x="965" y="694"/>
      <point x="945" y="714"/>
      <point x="867" y="714" type="curve" smooth="yes"/>
      <point x="614" y="714" type="line"/>
      <point x="641" y="778"/>
      <point x="698" y="811"/>
      <point x="809" y="811" type="curve" smooth="yes"/>
      <point x="834" y="811" type="line"/>
      <point x="834" y="890" type="line"/>
      <point x="815" y="890" type="line" smooth="yes"/>
      <point x="642" y="890"/>
      <point x="563" y="812"/>
      <point x="531" y="730" type="curve"/>
      <point x="500" y="812"/>
      <point x="420" y="890"/>
      <point x="247" y="890" type="curve" smooth="yes"/>
      <point x="229" y="890" type="line"/>
      <point x="229" y="811" type="line"/>
      <point x="254" y="811" type="line" smooth="yes"/>
      <point x="365" y="811"/>
      <point x="421" y="778"/>
      <point x="448" y="714" type="curve"/>
      <point x="195" y="714" type="line" smooth="yes"/>
      <point x="117" y="714"/>
      <point x="98" y="694"/>
      <point x="98" y="616" type="curve" smooth="yes"/>
      <point x="98" y="98" type="line" smooth="yes"/>
      <point x="98" y="20"/>
      <point x="117" y="0"/>
    </contour>
    <contour>
      <point x="236" y="79" type="line" smooth="yes"/>
      <point x="197" y="79"/>
      <point x="188" y="89"/>
      <point x="188" y="128" type="curve" smooth="yes"/>
      <point x="188" y="586" type="line" smooth="yes"/>
      <point x="188" y="625"/>
      <point x="197" y="635"/>
      <point x="236" y="635" type="curve" smooth="yes"/>
      <point x="373" y="635" type="line"/>
      <point x="373" y="128" type="line" smooth="yes"/>
      <point x="373" y="89"/>
      <point x="363" y="79"/>
      <point x="324" y="79" type="curve" smooth="yes"/>
    </contour>
    <contour>
      <point x="738" y="79" type="line" smooth="yes"/>
      <point x="699" y="79"/>
      <point x="689" y="89"/>
      <point x="689" y="128" type="curve" smooth="yes"/>
      <point x="689" y="635" type="line"/>
      <point x="826" y="635" type="line" smooth="yes"/>
      <point x="865" y="635"/>
      <point x="875" y="625"/>
      <point x="875" y="586" type="curve" smooth="yes"/>
      <point x="875" y="128" type="line" smooth="yes"/>
      <point x="875" y="89"/>
      <point x="865" y="79"/>
      <point x="826" y="79" type="curve" smooth="yes"/>
    </contour>
  </outline>
</glyph>
<glyph name="uni2C08" format="2">
  <advance width="1019"/>
  <unicode hex="2C08"/>
  <outline>
    <contour>
      <point x="98" y="0" type="line"/>
      <point x="205" y="0" type="line" smooth="yes"/>
      <point x="389" y="0"/>
      <point x="460" y="145"/>
      <point x="466" y="334" type="curve"/>
      <point x="547" y="334" type="line"/>
      <point x="547" y="98" type="line" smooth="yes"/>
      <point x="547" y="20"/>
      <point x="566" y="0"/>
      <point x="645" y="0" type="curve" smooth="yes"/>
      <point x="843" y="0" type="line" smooth="yes"/>
      <point x="921" y="0"/>
      <point x="940" y="20"/>
      <point x="940" y="98" type="curve" smooth="yes"/>
      <point x="940" y="315" type="line" smooth="yes"/>
      <point x="940" y="394"/>
      <point x="921" y="413"/>
      <point x="843" y="413" type="curve" smooth="yes"/>
      <point x="465" y="413" type="line"/>
      <point x="454" y="577"/>
      <point x="386" y="714"/>
      <point x="214" y="714" type="curve" smooth="yes"/>
      <point x="98" y="714" type="line"/>
    </contour>
    <contour>
      <point x="188" y="79" type="line"/>
      <point x="188" y="334" type="line"/>
      <point x="372" y="334" type="line"/>
      <point x="366" y="149"/>
      <point x="309" y="79"/>
      <point x="196" y="79" type="curve" smooth="yes"/>
    </contour>
    <contour>
      <point x="188" y="413" type="line"/>
      <point x="188" y="635" type="line"/>
      <point x="213" y="635" type="line" smooth="yes"/>
      <point x="294" y="635"/>
      <point x="360" y="579"/>
      <point x="371" y="413" type="curve"/>
    </contour>
    <contour>
      <point x="686" y="79" type="line" smooth="yes"/>
      <point x="646" y="79"/>
      <point x="637" y="89"/>
      <point x="637" y="128" type="curve" smooth="yes"/>
      <point x="637" y="334" type="line"/>
      <point x="802" y="334" type="line" smooth="yes"/>
      <point x="841" y="334"/>
      <point x="851" y="324"/>
      <point x="851" y="285" type="curve" smooth="yes"/>
      <point x="851" y="128" type="line" smooth="yes"/>
      <point x="851" y="89"/>
      <point x="841" y="79"/>
      <point x="802" y="79" type="curve" smooth="yes"/>
    </contour>
  </outline>
</glyph>
<glyph name="uni2C0B" format="2">
  <advance width="521"/>
  <unicode hex="2C0B"/>
  <outline>
    <contour>
      <point x="78" y="0" type="line"/>
      <point x="443" y="0" type="line"/>
      <point x="443" y="178" type="line" smooth="yes"/>
      <point x="443" y="251"/>
      <point x="428" y="322"/>
      <point x="382" y="364" type="curve"/>
      <point x="428" y="404"/>
      <point x="443" y="472"/>
      <point x="443" y="546" type="curve" smooth="yes"/>
      <point x="443" y="714" type="line"/>
      <point x="78" y="714" type="line"/>
      <point x="78" y="546" type="line" smooth="yes"/>
      <point x="78" y="479"/>
      <point x="90" y="407"/>
      <point x="139" y="364" type="curve"/>
      <point x="90" y="319"/>
      <point x="78" y="245"/>
      <point x="78" y="178" type="curve" smooth="yes"/>
    </contour>
    <contour>
      <point x="168" y="79" type="line"/>
      <point x="168" y="178" type="line" smooth="yes"/>
      <point x="168" y="275"/>
      <point x="181" y="326"/>
      <point x="261" y="326" type="curve" smooth="yes"/>
      <point x="342" y="326"/>
      <point x="354" y="274"/>
      <point x="354" y="178" type="curve" smooth="yes"/>
      <point x="354" y="79" type="line"/>
    </contour>
    <contour>
      <point x="261" y="405" type="curve" smooth="yes"/>
      <point x="181" y="405"/>
      <point x="168" y="448"/>
      <point x="168" y="546" type="curve" smooth="yes"/>
      <point x="168" y="635" type="line"/>
      <point x="354" y="635" type="line"/>
      <point x="354" y="546" type="line" smooth="yes"/>
      <point x="354" y="449"/>
      <point x="342" y="405"/>
    </contour>
  </outline>
</glyph>
<glyph name="uni2C0C" format="2">
  <advance width="1096"/>
  <unicode hex="2C0C"/>
  <outline>
    <contour>
      <point x="98" y="0" type="line"/>
      <point x="188" y="0" type="line"/>
      <point x="188" y="586" type="line" smooth="yes"/>
      <point x="188" y="625"/>
      <point x="197" y="635"/>
      <point x="236" y="635" type="curve" smooth="yes"/>
      <point x="324" y="635" type="line" smooth="yes"/>
      <point x="363" y="635"/>
      <point x="373" y="625"/>
      <point x="373" y="586" type="curve" smooth="yes"/>
      <point x="373" y="0" type="line"/>
      <point x="463" y="0" type="line"/>
      <point x="463" y="301" type="line"/>
      <point x="614" y="301" type="line"/>
      <point x="614" y="0" type="line"/>
      <point x="704" y="0" type="line"/>
      <point x="704" y="301" type="line"/>
      <point x="890" y="311"/>
      <point x="1018" y="414"/>
      <point x="1018" y="575" type="curve" smooth="yes"/>
      <point x="1018" y="666" type="line" smooth="yes"/>
      <point x="1018" y="701"/>
      <point x="992" y="714"/>
      <point x="969" y="714" type="curve" smooth="yes"/>
      <point x="712" y="714" type="line" smooth="yes"/>
      <point x="634" y="714"/>
      <point x="614" y="694"/>
      <point x="614" y="616" type="curve" smooth="yes"/>
      <point x="614" y="380" type="line"/>
      <point x="463" y="380" type="line"/>
      <point x="463" y="616" type="line" smooth="yes"/>
      <point x="463" y="694"/>
      <point x="443" y="714"/>
      <point x="365" y="714" type="curve" smooth="yes"/>
      <point x="195" y="714" type="line" smooth="yes"/>
      <point x="117" y="714"/>
      <point x="98" y="694"/>
      <point x="98" y="616" type="curve" smooth="yes"/>
    </contour>
    <contour>
      <point x="704" y="380" type="curve"/>
      <point x="704" y="586" type="line" smooth="yes"/>
      <point x="704" y="625"/>
      <point x="714" y="635"/>
      <point x="753" y="635" type="curve" smooth="yes"/>
      <point x="892" y="635" type="line" smooth="yes"/>
      <point x="923" y="635"/>
      <point x="928" y="625"/>
      <point x="928" y="563" type="curve" smooth="yes"/>
      <point x="928" y="468"/>
      <point x="863" y="390"/>
    </contour>
  </outline>
</glyph>
<glyph name="uni2C0D" format="2">
  <advance width="445"/>
  <unicode hex="2C0D"/>
  <outline>
    <contour>
      <point x="277" y="0" type="line"/>
      <point x="367" y="0" type="line"/>
      <point x="367" y="315" type="line" smooth="yes"/>
      <point x="367" y="394"/>
      <point x="348" y="413"/>
      <point x="270" y="413" type="curve" smooth="yes"/>
      <point x="141" y="413" type="line"/>
      <point x="204" y="714" type="line"/>
      <point x="118" y="714" type="line"/>
      <point x="39" y="334" type="line"/>
      <point x="229" y="334" type="line" smooth="yes"/>
      <point x="268" y="334"/>
      <point x="277" y="324"/>
      <point x="277" y="285" type="curve" smooth="yes"/>
    </contour>
  </outline>
</glyph>
<glyph name="uni2C0E" format="2">
  <advance width="1038"/>
  <unicode hex="2C0E"/>
  <outline>
    <contour>
      <point x="176" y="0" type="curve" smooth="yes"/>
      <point x="346" y="0" type="line" smooth="yes"/>
      <point x="424" y="0"/>
      <point x="443" y="20"/>
      <point x="443" y="98" type="curve" smooth="yes"/>
      <point x="443" y="334" type="line"/>
      <point x="595" y="334" type="line"/>
      <point x="595" y="98" type="line" smooth="yes"/>
      <point x="595" y="20"/>
      <point x="614" y="0"/>
      <point x="692" y="0" type="curve" smooth="yes"/>
      <point x="862" y="0" type="line" smooth="yes"/>
      <point x="940" y="0"/>
      <point x="960" y="20"/>
      <point x="960" y="98" type="curve" smooth="yes"/>
      <point x="960" y="315" type="line" smooth="yes"/>
      <point x="960" y="394"/>
      <point x="940" y="413"/>
      <point x="862" y="413" type="curve" smooth="yes"/>
      <point x="685" y="413" type="line"/>
      <point x="685" y="616" type="line" smooth="yes"/>
      <point x="685" y="694"/>
      <point x="665" y="714"/>
      <point x="587" y="714" type="curve" smooth="yes"/>
      <point x="451" y="714" type="line" smooth="yes"/>
      <point x="373" y="714"/>
      <point x="354" y="694"/>
      <point x="354" y="616" type="curve" smooth="yes"/>
      <point x="354" y="413" type="line"/>
      <point x="176" y="413" type="line" smooth="yes"/>
      <point x="98" y="413"/>
      <point x="78" y="394"/>
      <point x="78" y="315" type="curve" smooth="yes"/>
      <point x="78" y="98" type="line" smooth="yes"/>
      <point x="78" y="20"/>
      <point x="98" y="0"/>
    </contour>
    <contour>
      <point x="217" y="79" type="line" smooth="yes"/>
      <point x="178" y="79"/>
      <point x="168" y="89"/>
      <point x="168" y="128" type="curve" smooth="yes"/>
      <point x="168" y="285" type="line" smooth="yes"/>
      <point x="168" y="324"/>
      <point x="178" y="334"/>
      <point x="217" y="334" type="curve" smooth="yes"/>
      <point x="354" y="334" type="line"/>
      <point x="354" y="128" type="line" smooth="yes"/>
      <point x="354" y="89"/>
      <point x="344" y="79"/>
      <point x="305" y="79" type="curve" smooth="yes"/>
    </contour>
    <contour>
      <point x="733" y="79" type="line" smooth="yes"/>
      <point x="694" y="79"/>
      <point x="685" y="89"/>
      <point x="685" y="128" type="curve"/>
      <point x="685" y="334" type="line"/>
      <point x="821" y="334" type="line" smooth="yes"/>
      <point x="860" y="334"/>
      <point x="870" y="324"/>
      <point x="870" y="285" type="curve" smooth="yes"/>
      <point x="870" y="128" type="line" smooth="yes"/>
      <point x="870" y="89"/>
      <point x="860" y="79"/>
      <point x="821" y="79" type="curve" smooth="yes"/>
    </contour>
    <contour>
      <point x="443" y="413" type="line"/>
      <point x="443" y="586" type="line" smooth="yes"/>
      <point x="443" y="625"/>
      <point x="453" y="635"/>
      <point x="492" y="635" type="curve" smooth="yes"/>
      <point x="546" y="635" type="line" smooth="yes"/>
      <point x="585" y="635"/>
      <point x="595" y="625"/>
      <point x="595" y="586" type="curve" smooth="yes"/>
      <point x="595" y="413" type="line"/>
    </contour>
  </outline>
</glyph>
<glyph name="uni2C0F" format="2">
  <advance width="836"/>
  <unicode hex="2C0F"/>
  <outline>
    <contour>
      <point x="98" y="0" type="line"/>
      <point x="188" y="0" type="line"/>
      <point x="188" y="477" type="line" smooth="yes"/>
      <point x="188" y="575"/>
      <point x="200" y="645"/>
      <point x="280" y="645" type="curve" smooth="yes"/>
      <point x="359" y="645"/>
      <point x="373" y="578"/>
      <point x="373" y="485" type="curve" smooth="yes"/>
      <point x="373" y="0" type="line"/>
      <point x="463" y="0" type="line"/>
      <point x="463" y="487" type="line" smooth="yes"/>
      <point x="463" y="580"/>
      <point x="479" y="645"/>
      <point x="556" y="645" type="curve" smooth="yes"/>
      <point x="637" y="645"/>
      <point x="648" y="574"/>
      <point x="648" y="477" type="curve" smooth="yes"/>
      <point x="648" y="0" type="line"/>
      <point x="738" y="0" type="line"/>
      <point x="738" y="477" type="line" smooth="yes"/>
      <point x="738" y="615"/>
      <point x="704" y="724"/>
      <point x="556" y="724" type="curve" smooth="yes"/>
      <point x="488" y="724"/>
      <point x="445" y="700"/>
      <point x="418" y="665" type="curve"/>
      <point x="391" y="702"/>
      <point x="347" y="724"/>
      <point x="280" y="724" type="curve" smooth="yes"/>
      <point x="114" y="724"/>
      <point x="98" y="581"/>
      <point x="98" y="477" type="curve" smooth="yes"/>
    </contour>
  </outline>
</glyph>
<glyph name="uni2C10" format="2">
  <advance width="569"/>
  <unicode hex="2C10"/>
  <outline>
    <contour>
      <point x="98" y="0" type="line"/>
      <point x="188" y="0" type="line"/>
      <point x="188" y="301" type="line"/>
      <point x="374" y="311"/>
      <point x="501" y="414"/>
      <point x="501" y="575" type="curve" smooth="yes"/>
      <point x="501" y="646" type="line" smooth="yes"/>
      <point x="501" y="701"/>
      <point x="476" y="714"/>
      <point x="433" y="714" type="curve" smooth="yes"/>
      <point x="195" y="714" type="line" smooth="yes"/>
      <point x="117" y="714"/>
      <point x="98" y="694"/>
      <point x="98" y="616" type="curve" smooth="yes"/>
    </contour>
    <contour>
      <point x="188" y="380" type="curve"/>
      <point x="188" y="586" type="line" smooth="yes"/>
      <point x="188" y="625"/>
      <point x="197" y="635"/>
      <point x="236" y="635" type="curve" smooth="yes"/>
      <point x="375" y="635" type="line" smooth="yes"/>
      <point x="407" y="635"/>
      <point x="411" y="625"/>
      <point x="411" y="563" type="curve" smooth="yes"/>
      <point x="411" y="468"/>
      <point x="347" y="390"/>
    </contour>
  </outline>
</glyph>
<glyph name="uni2C11" format="2">
  <advance width="569"/>
  <unicode hex="2C11"/>
  <outline>
    <contour>
      <point x="179" y="0" type="curve" smooth="yes"/>
      <point x="374" y="0" type="line" smooth="yes"/>
      <point x="457" y="0"/>
      <point x="472" y="15"/>
      <point x="472" y="98" type="curve" smooth="yes"/>
      <point x="472" y="616" type="line" smooth="yes"/>
      <point x="472" y="699"/>
      <point x="457" y="714"/>
      <point x="374" y="714" type="curve" smooth="yes"/>
      <point x="179" y="714" type="line" smooth="yes"/>
      <point x="80" y="714"/>
      <point x="68" y="637"/>
      <point x="68" y="575" type="curve" smooth="yes"/>
      <point x="68" y="477"/>
      <point x="123" y="403"/>
      <point x="209" y="368" type="curve"/>
      <point x="123" y="324"/>
      <point x="68" y="237"/>
      <point x="68" y="139" type="curve" smooth="yes"/>
      <point x="68" y="77"/>
      <point x="80" y="0"/>
    </contour>
    <contour>
      <point x="210" y="79" type="line" smooth="yes"/>
      <point x="164" y="79"/>
      <point x="158" y="107"/>
      <point x="158" y="155" type="curve" smooth="yes"/>
      <point x="158" y="257"/>
      <point x="251" y="333"/>
      <point x="382" y="334" type="curve"/>
      <point x="382" y="122" type="line" smooth="yes"/>
      <point x="382" y="96"/>
      <point x="373" y="79"/>
      <point x="345" y="79" type="curve" smooth="yes"/>
    </contour>
    <contour>
      <point x="382" y="413" type="line"/>
      <point x="251" y="414"/>
      <point x="158" y="468"/>
      <point x="158" y="559" type="curve" smooth="yes"/>
      <point x="158" y="606"/>
      <point x="164" y="635"/>
      <point x="210" y="635" type="curve" smooth="yes"/>
      <point x="345" y="635" type="line" smooth="yes"/>
      <point x="373" y="635"/>
      <point x="382" y="618"/>
      <point x="382" y="592" type="curve" smooth="yes"/>
    </contour>
  </outline>
</glyph>
<glyph name="uni2C12" format="2">
  <advance width="769"/>
  <unicode hex="2C12"/>
  <outline>
    <contour>
      <point x="98" y="0" type="line"/>
      <point x="188" y="0" type="line"/>
      <point x="188" y="586" type="line" smooth="yes"/>
      <point x="188" y="625"/>
      <point x="197" y="635"/>
      <point x="236" y="635" type="curve" smooth="yes"/>
      <point x="326" y="635" type="line"/>
      <point x="326" y="293" type="line" smooth="yes"/>
      <point x="326" y="215"/>
      <point x="345" y="195"/>
      <point x="423" y="195" type="curve" smooth="yes"/>
      <point x="593" y="195" type="line" smooth="yes"/>
      <point x="671" y="195"/>
      <point x="691" y="215"/>
      <point x="691" y="293" type="curve" smooth="yes"/>
      <point x="691" y="616" type="line" smooth="yes"/>
      <point x="691" y="694"/>
      <point x="671" y="714"/>
      <point x="593" y="714" type="curve" smooth="yes"/>
      <point x="195" y="714" type="line" smooth="yes"/>
      <point x="117" y="714"/>
      <point x="98" y="694"/>
      <point x="98" y="616" type="curve" smooth="yes"/>
    </contour>
    <contour>
      <point x="464" y="274" type="line" smooth="yes"/>
      <point x="425" y="274"/>
      <point x="416" y="284"/>
      <point x="416" y="323" type="curve" smooth="yes"/>
      <point x="416" y="635" type="line"/>
      <point x="552" y="635" type="line" smooth="yes"/>
      <point x="591" y="635"/>
      <point x="601" y="625"/>
      <point x="601" y="586" type="curve" smooth="yes"/>
      <point x="601" y="323" type="line" smooth="yes"/>
      <point x="601" y="284"/>
      <point x="591" y="274"/>
      <point x="552" y="274" type="curve" smooth="yes"/>
    </contour>
  </outline>
</glyph>
<glyph name="uni2C13" format="2">
  <advance width="569"/>
  <unicode hex="2C13"/>
  <outline>
    <contour>
      <point x="195" y="0" type="curve" smooth="yes"/>
      <point x="371" y="0" type="line" smooth="yes"/>
      <point x="480" y="0"/>
      <point x="501" y="77"/>
      <point x="501" y="139" type="curve" smooth="yes"/>
      <point x="501" y="294"/>
      <point x="364" y="412"/>
      <point x="188" y="413" type="curve"/>
      <point x="188" y="714" type="line"/>
      <point x="98" y="714" type="line"/>
      <point x="98" y="98" type="line" smooth="yes"/>
      <point x="98" y="15"/>
      <point x="112" y="0"/>
    </contour>
    <contour>
      <point x="224" y="79" type="line" smooth="yes"/>
      <point x="197" y="79"/>
      <point x="188" y="96"/>
      <point x="188" y="122" type="curve" smooth="yes"/>
      <point x="188" y="334" type="line"/>
      <point x="317" y="333"/>
      <point x="411" y="246"/>
      <point x="411" y="155" type="curve" smooth="yes"/>
      <point x="411" y="107"/>
      <point x="406" y="79"/>
      <point x="359" y="79" type="curve" smooth="yes"/>
    </contour>
  </outline>
</glyph>
<glyph name="uni2C14" format="2">
  <advance width="804"/>
  <unicode hex="2C14"/>
  <outline>
    <contour>
      <point x="223" y="0" type="line"/>
      <point x="588" y="0" type="line"/>
      <point x="588" y="178" type="line" smooth="yes"/>
      <point x="588" y="187"/>
      <point x="587" y="196"/>
      <point x="587" y="205" type="curve"/>
      <point x="691" y="258"/>
      <point x="735" y="357"/>
      <point x="735" y="451" type="curve" smooth="yes"/>
      <point x="735" y="578"/>
      <point x="642" y="725"/>
      <point x="402" y="725" type="curve" smooth="yes"/>
      <point x="162" y="725"/>
      <point x="68" y="578"/>
      <point x="68" y="445" type="curve" smooth="yes"/>
      <point x="68" y="353"/>
      <point x="114" y="254"/>
      <point x="223" y="202" type="curve"/>
      <point x="223" y="194"/>
      <point x="223" y="186"/>
      <point x="223" y="178" type="curve" smooth="yes"/>
    </contour>
    <contour>
      <point x="313" y="79" type="line"/>
      <point x="313" y="178" type="line" smooth="yes"/>
      <point x="313" y="275"/>
      <point x="325" y="326"/>
      <point x="405" y="326" type="curve" smooth="yes"/>
      <point x="486" y="326"/>
      <point x="498" y="274"/>
      <point x="498" y="178" type="curve" smooth="yes"/>
      <point x="498" y="79" type="line"/>
    </contour>
    <contour>
      <point x="238" y="290" type="curve"/>
      <point x="191" y="322"/>
      <point x="161" y="371"/>
      <point x="161" y="446" type="curve" smooth="yes"/>
      <point x="161" y="572"/>
      <point x="271" y="646"/>
      <point x="401" y="646" type="curve" smooth="yes"/>
      <point x="528" y="646"/>
      <point x="643" y="583"/>
      <point x="643" y="446" type="curve" smooth="yes"/>
      <point x="643" y="376"/>
      <point x="615" y="328"/>
      <point x="570" y="295" type="curve"/>
      <point x="547" y="359"/>
      <point x="498" y="405"/>
      <point x="405" y="405" type="curve" smooth="yes"/>
      <point x="306" y="405"/>
      <point x="259" y="354"/>
    </contour>
  </outline>
</glyph>
<glyph name="uni2C15" format="2">
  <advance width="1063"/>
  <unicode hex="2C15"/>
  <outline>
    <contour>
      <point x="195" y="0" type="curve" smooth="yes"/>
      <point x="365" y="0" type="line" smooth="yes"/>
      <point x="443" y="0"/>
      <point x="463" y="20"/>
      <point x="463" y="98" type="curve" smooth="yes"/>
      <point x="463" y="635" type="line"/>
      <point x="600" y="635" type="line"/>
      <point x="600" y="98" type="line" smooth="yes"/>
      <point x="600" y="20"/>
      <point x="619" y="0"/>
      <point x="697" y="0" type="curve" smooth="yes"/>
      <point x="867" y="0" type="line" smooth="yes"/>
      <point x="945" y="0"/>
      <point x="965" y="20"/>
      <point x="965" y="98" type="curve" smooth="yes"/>
      <point x="965" y="616" type="line" smooth="yes"/>
      <point x="965" y="694"/>
      <point x="945" y="714"/>
      <point x="867" y="714" type="curve" smooth="yes"/>
      <point x="195" y="714" type="line" smooth="yes"/>
      <point x="117" y="714"/>
      <point x="98" y="694"/>
      <point x="98" y="616" type="curve" smooth="yes"/>
      <point x="98" y="98" type="line" smooth="yes"/>
      <point x="98" y="20"/>
      <point x="117" y="0"/>
    </contour>
    <contour>
      <point x="236" y="79" type="line" smooth="yes"/>
      <point x="197" y="79"/>
      <point x="188" y="89"/>
      <point x="188" y="128" type="curve" smooth="yes"/>
      <point x="188" y="586" type="line" smooth="yes"/>
      <point x="188" y="625"/>
      <point x="197" y="635"/>
      <point x="236" y="635" type="curve" smooth="yes"/>
      <point x="373" y="635" type="line"/>
      <point x="373" y="128" type="line" smooth="yes"/>
      <point x="373" y="89"/>
      <point x="363" y="79"/>
      <point x="324" y="79" type="curve" smooth="yes"/>
    </contour>
    <contour>
      <point x="738" y="79" type="line" smooth="yes"/>
      <point x="699" y="79"/>
      <point x="689" y="89"/>
      <point x="689" y="128" type="curve" smooth="yes"/>
      <point x="689" y="635" type="line"/>
      <point x="826" y="635" type="line" smooth="yes"/>
      <point x="865" y="635"/>
      <point x="875" y="625"/>
      <point x="875" y="586" type="curve" smooth="yes"/>
      <point x="875" y="128" type="line" smooth="yes"/>
      <point x="875" y="89"/>
      <point x="865" y="79"/>
      <point x="826" y="79" type="curve" smooth="yes"/>
    </contour>
  </outline>
</glyph>
<glyph name="uni2C16" format="2">
  <advance width="854"/>
  <unicode hex="2C16"/>
  <outline>
    <contour>
      <point x="189" y="0" type="curve" smooth="yes"/>
      <point x="659" y="0" type="line" smooth="yes"/>
      <point x="737" y="0"/>
      <point x="757" y="20"/>
      <point x="757" y="98" type="curve" smooth="yes"/>
      <point x="757" y="616" type="line" smooth="yes"/>
      <point x="757" y="694"/>
      <point x="737" y="714"/>
      <point x="659" y="714" type="curve" smooth="yes"/>
      <point x="189" y="714" type="line" smooth="yes"/>
      <point x="89" y="714"/>
      <point x="78" y="637"/>
      <point x="78" y="575" type="curve" smooth="yes"/>
      <point x="78" y="477"/>
      <point x="136" y="414"/>
      <point x="221" y="372" type="curve"/>
      <point x="136" y="327"/>
      <point x="78" y="237"/>
      <point x="78" y="139" type="curve" smooth="yes"/>
      <point x="78" y="77"/>
      <point x="89" y="0"/>
    </contour>
    <contour>
      <point x="220" y="79" type="line" smooth="yes"/>
      <point x="173" y="79"/>
      <point x="168" y="107"/>
      <point x="168" y="155" type="curve" smooth="yes"/>
      <point x="168" y="266"/>
      <point x="261" y="333"/>
      <point x="392" y="334" type="curve"/>
      <point x="392" y="79" type="line"/>
    </contour>
    <contour>
      <point x="481" y="79" type="line"/>
      <point x="481" y="334" type="line"/>
      <point x="667" y="334" type="line"/>
      <point x="667" y="128" type="line" smooth="yes"/>
      <point x="667" y="89"/>
      <point x="657" y="79"/>
      <point x="618" y="79" type="curve"/>
    </contour>
    <contour>
      <point x="392" y="413" type="line"/>
      <point x="251" y="414"/>
      <point x="168" y="468"/>
      <point x="168" y="559" type="curve" smooth="yes"/>
      <point x="168" y="606"/>
      <point x="173" y="635"/>
      <point x="220" y="635" type="curve" smooth="yes"/>
      <point x="392" y="635" type="line"/>
    </contour>
    <contour>
      <point x="481" y="413" type="line"/>
      <point x="481" y="635" type="line"/>
      <point x="618" y="635" type="line" smooth="yes"/>
      <point x="657" y="635"/>
      <point x="667" y="625"/>
      <point x="667" y="586" type="curve" smooth="yes"/>
      <point x="667" y="413" type="line"/>
    </contour>
  </outline>
</glyph>
<glyph name="uni2C18" format="2">
  <advance width="855"/>
  <unicode hex="2C18"/>
  <outline>
    <contour>
      <point x="78" y="0" type="line"/>
      <point x="164" y="0" type="line"/>
      <point x="267" y="276" type="line"/>
      <point x="383" y="276" type="line"/>
      <point x="383" y="98" type="line" smooth="yes"/>
      <point x="383" y="20"/>
      <point x="403" y="0"/>
      <point x="481" y="0" type="curve" smooth="yes"/>
      <point x="777" y="0" type="line"/>
      <point x="777" y="315" type="line" smooth="yes"/>
      <point x="777" y="394"/>
      <point x="757" y="413"/>
      <point x="679" y="413" type="curve" smooth="yes"/>
      <point x="481" y="413" type="line" smooth="yes"/>
      <point x="418" y="413"/>
      <point x="394" y="400"/>
      <point x="386" y="355" type="curve"/>
      <point x="296" y="355" type="line"/>
      <point x="430" y="714" type="line"/>
      <point x="49" y="714" type="line"/>
      <point x="49" y="635" type="line"/>
      <point x="314" y="635" type="line"/>
    </contour>
    <contour>
      <point x="522" y="79" type="line" smooth="yes"/>
      <point x="483" y="79"/>
      <point x="473" y="89"/>
      <point x="473" y="128" type="curve" smooth="yes"/>
      <point x="473" y="285" type="line" smooth="yes"/>
      <point x="473" y="324"/>
      <point x="483" y="334"/>
      <point x="522" y="334" type="curve" smooth="yes"/>
      <point x="638" y="334" type="line" smooth="yes"/>
      <point x="677" y="334"/>
      <point x="687" y="324"/>
      <point x="687" y="285" type="curve" smooth="yes"/>
      <point x="687" y="79" type="line"/>
    </contour>
  </outline>
</glyph>
<glyph name="uni2C19" format="2">
  <advance width="796"/>
  <unicode hex="2C19"/>
  <outline>
    <contour>
      <point x="398" y="-10" type="curve" smooth="yes"/>
      <point x="613" y="-10"/>
      <point x="728" y="137"/>
      <point x="728" y="358" type="curve" smooth="yes"/>
      <point x="728" y="580"/>
      <point x="613" y="725"/>
      <point x="399" y="725" type="curve" smooth="yes"/>
      <point x="175" y="725"/>
      <point x="68" y="578"/>
      <point x="68" y="359" type="curve" smooth="yes"/>
      <point x="68" y="138"/>
      <point x="175" y="-10"/>
    </contour>
    <contour>
      <point x="399" y="61" type="curve" smooth="yes"/>
      <point x="372" y="61"/>
      <point x="350" y="83"/>
      <point x="350" y="110" type="curve" smooth="yes"/>
      <point x="350" y="137"/>
      <point x="372" y="159"/>
      <point x="399" y="159" type="curve" smooth="yes"/>
      <point x="427" y="159"/>
      <point x="449" y="137"/>
      <point x="449" y="110" type="curve" smooth="yes"/>
      <point x="449" y="83"/>
      <point x="427" y="61"/>
    </contour>
    <contour>
      <point x="292" y="81" type="curve"/>
      <point x="203" y="121"/>
      <point x="161" y="224"/>
      <point x="161" y="358" type="curve" smooth="yes"/>
      <point x="161" y="492"/>
      <point x="203" y="594"/>
      <point x="292" y="633" type="curve"/>
      <point x="290" y="624"/>
      <point x="289" y="614"/>
      <point x="289" y="604" type="curve" smooth="yes"/>
      <point x="289" y="543"/>
      <point x="338" y="494"/>
      <point x="399" y="494" type="curve" smooth="yes"/>
      <point x="460" y="494"/>
      <point x="510" y="543"/>
      <point x="510" y="604" type="curve" smooth="yes"/>
      <point x="510" y="614"/>
      <point x="508" y="624"/>
      <point x="506" y="633" type="curve"/>
      <point x="593" y="593"/>
      <point x="635" y="492"/>
      <point x="635" y="358" type="curve" smooth="yes"/>
      <point x="635" y="225"/>
      <point x="594" y="122"/>
      <point x="506" y="82" type="curve"/>
      <point x="508" y="90"/>
      <point x="510" y="100"/>
      <point x="510" y="109" type="curve" smooth="yes"/>
      <point x="510" y="171"/>
      <point x="460" y="220"/>
      <point x="399" y="220" type="curve" smooth="yes"/>
      <point x="338" y="220"/>
      <point x="289" y="171"/>
      <point x="289" y="109" type="curve" smooth="yes"/>
      <point x="289" y="100"/>
      <point x="290" y="90"/>
    </contour>
    <contour>
      <point x="399" y="555" type="curve" smooth="yes"/>
      <point x="372" y="555"/>
      <point x="350" y="577"/>
      <point x="350" y="604" type="curve" smooth="yes"/>
      <point x="350" y="631"/>
      <point x="371" y="654"/>
      <point x="397" y="654" type="curve" smooth="yes"/>
      <point x="428" y="654"/>
      <point x="449" y="631"/>
      <point x="449" y="604" type="curve" smooth="yes"/>
      <point x="449" y="577"/>
      <point x="427" y="555"/>
    </contour>
  </outline>
</glyph>
<glyph name="uni2C1A" format="2">
  <advance width="865"/>
  <unicode hex="2C1A"/>
  <outline>
    <contour>
      <point x="176" y="0" type="curve" smooth="yes"/>
      <point x="374" y="0" type="line" smooth="yes"/>
      <point x="452" y="0"/>
      <point x="472" y="20"/>
      <point x="472" y="98" type="curve" smooth="yes"/>
      <point x="472" y="586" type="line" smooth="yes"/>
      <point x="472" y="625"/>
      <point x="481" y="635"/>
      <point x="521" y="635" type="curve" smooth="yes"/>
      <point x="628" y="635" type="line" smooth="yes"/>
      <point x="667" y="635"/>
      <point x="677" y="625"/>
      <point x="677" y="586" type="curve" smooth="yes"/>
      <point x="677" y="0" type="line"/>
      <point x="767" y="0" type="line"/>
      <point x="767" y="616" type="line" smooth="yes"/>
      <point x="767" y="694"/>
      <point x="748" y="714"/>
      <point x="669" y="714" type="curve" smooth="yes"/>
      <point x="479" y="714" type="line" smooth="yes"/>
      <point x="401" y="714"/>
      <point x="382" y="694"/>
      <point x="382" y="616" type="curve" smooth="yes"/>
      <point x="382" y="413" type="line"/>
      <point x="176" y="413" type="line" smooth="yes"/>
      <point x="98" y="413"/>
      <point x="78" y="394"/>
      <point x="78" y="315" type="curve" smooth="yes"/>
      <point x="78" y="98" type="line" smooth="yes"/>
      <point x="78" y="20"/>
      <point x="98" y="0"/>
    </contour>
    <contour>
      <point x="217" y="79" type="line" smooth="yes"/>
      <point x="178" y="79"/>
      <point x="168" y="89"/>
      <point x="168" y="128" type="curve" smooth="yes"/>
      <point x="168" y="285" type="line" smooth="yes"/>
      <point x="168" y="324"/>
      <point x="178" y="334"/>
      <point x="217" y="334" type="curve" smooth="yes"/>
      <point x="382" y="334" type="line"/>
      <point x="382" y="128" type="line" smooth="yes"/>
      <point x="382" y="89"/>
      <point x="372" y="79"/>
      <point x="333" y="79" type="curve" smooth="yes"/>
    </contour>
  </outline>
</glyph>
<glyph name="uni2C1F" format="2">
  <advance width="742"/>
  <unicode hex="2C1F"/>
  <outline>
    <contour>
      <point x="299" y="0" type="line"/>
      <point x="664" y="0" type="line"/>
      <point x="664" y="178" type="line" smooth="yes"/>
      <point x="664" y="251"/>
      <point x="649" y="322"/>
      <point x="603" y="364" type="curve"/>
      <point x="649" y="404"/>
      <point x="664" y="472"/>
      <point x="664" y="546" type="curve" smooth="yes"/>
      <point x="664" y="714" type="line"/>
      <point x="299" y="714" type="line"/>
      <point x="299" y="546" type="line" smooth="yes"/>
      <point x="299" y="500"/>
      <point x="304" y="452"/>
      <point x="323" y="413" type="curve"/>
      <point x="142" y="413" type="line" smooth="yes"/>
      <point x="80" y="413"/>
      <point x="29" y="363"/>
      <point x="29" y="301" type="curve" smooth="yes"/>
      <point x="29" y="239"/>
      <point x="80" y="188"/>
      <point x="142" y="188" type="curve" smooth="yes"/>
      <point x="205" y="188"/>
      <point x="255" y="239"/>
      <point x="255" y="301" type="curve" smooth="yes"/>
      <point x="255" y="312"/>
      <point x="253" y="323"/>
      <point x="250" y="334" type="curve"/>
      <point x="334" y="334" type="line"/>
      <point x="306" y="290"/>
      <point x="299" y="231"/>
      <point x="299" y="178" type="curve" smooth="yes"/>
    </contour>
    <contour>
      <point x="142" y="251" type="curve" smooth="yes"/>
      <point x="115" y="251"/>
      <point x="93" y="273"/>
      <point x="93" y="301" type="curve" smooth="yes"/>
      <point x="93" y="327"/>
      <point x="114" y="350"/>
      <point x="140" y="350" type="curve" smooth="yes"/>
      <point x="171" y="350"/>
      <point x="191" y="327"/>
      <point x="191" y="301" type="curve" smooth="yes"/>
      <point x="191" y="273"/>
      <point x="169" y="251"/>
    </contour>
    <contour>
      <point x="389" y="79" type="line"/>
      <point x="389" y="178" type="line" smooth="yes"/>
      <point x="389" y="275"/>
      <point x="401" y="326"/>
      <point x="481" y="326" type="curve" smooth="yes"/>
      <point x="563" y="326"/>
      <point x="574" y="274"/>
      <point x="574" y="178" type="curve" smooth="yes"/>
      <point x="574" y="79" type="line"/>
    </contour>
    <contour>
      <point x="481" y="405" type="curve" smooth="yes"/>
      <point x="401" y="405"/>
      <point x="389" y="448"/>
      <point x="389" y="546" type="curve" smooth="yes"/>
      <point x="389" y="635" type="line"/>
      <point x="574" y="635" type="line"/>
      <point x="574" y="546" type="line" smooth="yes"/>
      <point x="574" y="449"/>
      <point x="563" y="405"/>
    </contour>
  </outline>
</glyph>
<glyph name="uni2C21" format="2">
  <advance width="936"/>
  <unicode hex="2C21"/>
  <outline>
    <contour>
      <point x="49" y="0" type="line"/>
      <point x="887" y="0" type="line"/>
      <point x="582" y="655" type="line" smooth="yes"/>
      <point x="565" y="692"/>
      <point x="550" y="714"/>
      <point x="515" y="714" type="curve" smooth="yes"/>
      <point x="420" y="714" type="line" smooth="yes"/>
      <point x="386" y="714"/>
      <point x="371" y="692"/>
      <point x="354" y="655" type="curve" smooth="yes"/>
    </contour>
    <contour>
      <point x="175" y="79" type="line"/>
      <point x="278" y="302" type="line"/>
      <point x="425" y="302" type="line"/>
      <point x="425" y="79" type="line"/>
    </contour>
    <contour>
      <point x="516" y="79" type="line"/>
      <point x="516" y="302" type="line"/>
      <point x="657" y="302" type="line"/>
      <point x="761" y="79" type="line"/>
    </contour>
    <contour>
      <point x="315" y="381" type="line"/>
      <point x="417" y="601" type="line" smooth="yes"/>
      <point x="425" y="618"/>
      <point x="433" y="635"/>
      <point x="456" y="635" type="curve" smooth="yes"/>
      <point x="479" y="635" type="line" smooth="yes"/>
      <point x="502" y="635"/>
      <point x="511" y="618"/>
      <point x="519" y="601" type="curve" smooth="yes"/>
      <point x="621" y="381" type="line"/>
    </contour>
  </outline>
</glyph>
<glyph name="uni2C24" format="2">
  <advance width="727"/>
  <unicode hex="2C24"/>
  <outline>
    <contour>
      <point x="482" y="-10" type="curve" smooth="yes"/>
      <point x="565" y="-10"/>
      <point x="616" y="-1"/>
      <point x="672" y="19" type="curve"/>
      <point x="672" y="97" type="line"/>
      <point x="616" y="82"/>
      <point x="560" y="69"/>
      <point x="496" y="69" type="curve" smooth="yes"/>
      <point x="324" y="69"/>
      <point x="237" y="163"/>
      <point x="232" y="334" type="curve"/>
      <point x="579" y="334" type="line"/>
      <point x="579" y="413" type="line"/>
      <point x="233" y="413" type="line"/>
      <point x="246" y="559"/>
      <point x="338" y="645"/>
      <point x="476" y="645" type="curve" smooth="yes"/>
      <point x="543" y="645"/>
      <point x="597" y="627"/>
      <point x="641" y="607" type="curve"/>
      <point x="678" y="682" type="line"/>
      <point x="623" y="709"/>
      <point x="550" y="724"/>
      <point x="475" y="724" type="curve" smooth="yes"/>
      <point x="263" y="724"/>
      <point x="154" y="594"/>
      <point x="139" y="413" type="curve"/>
      <point x="20" y="413" type="line"/>
      <point x="20" y="334" type="line"/>
      <point x="138" y="334" type="line"/>
      <point x="149" y="122"/>
      <point x="262" y="-10"/>
    </contour>
  </outline>
</glyph>
<glyph name="uni2C26" format="2">
  <advance width="860"/>
  <unicode hex="2C26"/>
  <outline>
    <contour>
      <point x="248" y="0" type="line"/>
      <point x="613" y="0" type="line"/>
      <point x="613" y="169" type="line" smooth="yes"/>
      <point x="613" y="233"/>
      <point x="601" y="293"/>
      <point x="567" y="334" type="curve"/>
      <point x="811" y="334" type="line"/>
      <point x="612" y="714" type="line"/>
      <point x="248" y="714" type="line"/>
      <point x="49" y="334" type="line"/>
      <point x="292" y="334" type="line"/>
      <point x="256" y="291"/>
      <point x="248" y="228"/>
      <point x="248" y="169" type="curve" smooth="yes"/>
    </contour>
    <contour>
      <point x="337" y="79" type="line"/>
      <point x="337" y="169" type="line" smooth="yes"/>
      <point x="337" y="267"/>
      <point x="350" y="310"/>
      <point x="430" y="310" type="curve" smooth="yes"/>
      <point x="511" y="310"/>
      <point x="523" y="266"/>
      <point x="523" y="169" type="curve" smooth="yes"/>
      <point x="523" y="79" type="line"/>
    </contour>
    <contour>
      <point x="177" y="413" type="line"/>
      <point x="295" y="635" type="line"/>
      <point x="385" y="635" type="line"/>
      <point x="385" y="413" type="line"/>
    </contour>
    <contour>
      <point x="475" y="413" type="line"/>
      <point x="475" y="635" type="line"/>
      <point x="564" y="635" type="line"/>
      <point x="683" y="413" type="line"/>
    </contour>
  </outline>
</glyph>
<glyph name="uni2C28" format="2">
  <advance width="1040"/>
  <unicode hex="2C28"/>
  <outline>
    <contour>
      <point x="842" y="-10" type="curve" smooth="yes"/>
      <point x="902" y="-10"/>
      <point x="948" y="0"/>
      <point x="988" y="13" type="curve"/>
      <point x="988" y="93" type="line"/>
      <point x="948" y="81"/>
      <point x="902" y="69"/>
      <point x="856" y="69" type="curve" smooth="yes"/>
      <point x="738" y="69"/>
      <point x="675" y="163"/>
      <point x="675" y="334" type="curve"/>
      <point x="900" y="334" type="line"/>
      <point x="900" y="413" type="line"/>
      <point x="676" y="413" type="line"/>
      <point x="680" y="559"/>
      <point x="745" y="645"/>
      <point x="834" y="645" type="curve" smooth="yes"/>
      <point x="885" y="645"/>
      <point x="924" y="633"/>
      <point x="957" y="610" type="curve"/>
      <point x="991" y="684" type="line"/>
      <point x="946" y="711"/>
      <point x="903" y="724"/>
      <point x="833" y="724" type="curve" smooth="yes"/>
      <point x="659" y="724"/>
      <point x="591" y="580"/>
      <point x="582" y="413" type="curve"/>
      <point x="481" y="413" type="line"/>
      <point x="481" y="616" type="line" smooth="yes"/>
      <point x="481" y="699"/>
      <point x="467" y="714"/>
      <point x="384" y="714" type="curve" smooth="yes"/>
      <point x="189" y="714" type="line" smooth="yes"/>
      <point x="89" y="714"/>
      <point x="78" y="637"/>
      <point x="78" y="575" type="curve" smooth="yes"/>
      <point x="78" y="477"/>
      <point x="133" y="407"/>
      <point x="218" y="368" type="curve"/>
      <point x="133" y="320"/>
      <point x="78" y="237"/>
      <point x="78" y="139" type="curve" smooth="yes"/>
      <point x="78" y="77"/>
      <point x="89" y="0"/>
      <point x="189" y="0" type="curve" smooth="yes"/>
      <point x="384" y="0" type="line" smooth="yes"/>
      <point x="467" y="0"/>
      <point x="481" y="15"/>
      <point x="481" y="98" type="curve" smooth="yes"/>
      <point x="481" y="334" type="line"/>
      <point x="581" y="334" type="line"/>
      <point x="588" y="134"/>
      <point x="660" y="-10"/>
    </contour>
    <contour>
      <point x="220" y="79" type="line" smooth="yes"/>
      <point x="173" y="79"/>
      <point x="168" y="107"/>
      <point x="168" y="155" type="curve" smooth="yes"/>
      <point x="168" y="246"/>
      <point x="261" y="333"/>
      <point x="392" y="334" type="curve"/>
      <point x="392" y="121" type="line" smooth="yes"/>
      <point x="392" y="95"/>
      <point x="382" y="79"/>
      <point x="355" y="79" type="curve" smooth="yes"/>
    </contour>
    <contour>
      <point x="392" y="413" type="line"/>
      <point x="261" y="414"/>
      <point x="168" y="468"/>
      <point x="168" y="559" type="curve" smooth="yes"/>
      <point x="168" y="606"/>
      <point x="173" y="635"/>
      <point x="220" y="635" type="curve" smooth="yes"/>
      <point x="355" y="635" type="line" smooth="yes"/>
      <point x="382" y="635"/>
      <point x="392" y="618"/>
      <point x="392" y="592" type="curve" smooth="yes"/>
    </contour>
  </outline>
</glyph>
<glyph name="uni2C2E" format="2">
  <advance width="989"/>
  <unicode hex="2C2E"/>
  <outline>
    <contour>
      <point x="210" y="-10" type="curve" smooth="yes"/>
      <point x="319" y="-10"/>
      <point x="355" y="49"/>
      <point x="355" y="110" type="curve" smooth="yes"/>
      <point x="355" y="249"/>
      <point x="220" y="278"/>
      <point x="220" y="444" type="curve" smooth="yes"/>
      <point x="220" y="521"/>
      <point x="255" y="632"/>
      <point x="450" y="646" type="curve"/>
      <point x="450" y="0" type="line"/>
      <point x="540" y="0" type="line"/>
      <point x="540" y="646" type="line"/>
      <point x="734" y="632"/>
      <point x="770" y="521"/>
      <point x="770" y="444" type="curve" smooth="yes"/>
      <point x="770" y="278"/>
      <point x="634" y="237"/>
      <point x="634" y="113" type="curve" smooth="yes"/>
      <point x="634" y="57"/>
      <point x="670" y="-10"/>
      <point x="779" y="-10" type="curve" smooth="yes"/>
      <point x="901" y="-10"/>
      <point x="935" y="69"/>
      <point x="940" y="126" type="curve"/>
      <point x="854" y="141" type="line"/>
      <point x="847" y="106"/>
      <point x="829" y="69"/>
      <point x="783" y="69" type="curve" smooth="yes"/>
      <point x="740" y="69"/>
      <point x="725" y="96"/>
      <point x="725" y="125" type="curve" smooth="yes"/>
      <point x="725" y="209"/>
      <point x="860" y="270"/>
      <point x="860" y="444" type="curve" smooth="yes"/>
      <point x="860" y="568"/>
      <point x="775" y="725"/>
      <point x="495" y="725" type="curve" smooth="yes"/>
      <point x="214" y="725"/>
      <point x="129" y="568"/>
      <point x="129" y="444" type="curve" smooth="yes"/>
      <point x="129" y="270"/>
      <point x="264" y="209"/>
      <point x="264" y="125" type="curve" smooth="yes"/>
      <point x="264" y="96"/>
      <point x="250" y="70"/>
      <point x="206" y="70" type="curve" smooth="yes"/>
      <point x="161" y="70"/>
      <point x="143" y="106"/>
      <point x="135" y="141" type="curve"/>
      <point x="49" y="126" type="line"/>
      <point x="55" y="69"/>
      <point x="83" y="-10"/>
    </contour>
  </outline>
</glyph>
<glyph name="uni2C31" format="2">
  <advance width="727"/>
  <unicode hex="2C31"/>
  <outline>
    <contour>
      <point x="155" y="0" type="curve" smooth="yes"/>
      <point x="646" y="0" type="line"/>
      <point x="646" y="71" type="line"/>
      <point x="208" y="71" type="line" smooth="yes"/>
      <point x="188" y="71"/>
      <point x="174" y="71"/>
      <point x="174" y="110" type="curve" smooth="yes"/>
      <point x="174" y="208" type="line"/>
      <point x="583" y="249" type="line" smooth="yes"/>
      <point x="655" y="256"/>
      <point x="658" y="271"/>
      <point x="658" y="324" type="curve" smooth="yes"/>
      <point x="658" y="536" type="line"/>
      <point x="572" y="536" type="line"/>
      <point x="572" y="354" type="line" smooth="yes"/>
      <point x="572" y="324"/>
      <point x="568" y="315"/>
      <point x="540" y="313" type="curve" smooth="yes"/>
      <point x="416" y="302" type="line"/>
      <point x="416" y="536" type="line"/>
      <point x="330" y="536" type="line"/>
      <point x="330" y="294" type="line"/>
      <point x="174" y="280" type="line"/>
      <point x="174" y="536" type="line"/>
      <point x="88" y="536" type="line"/>
      <point x="88" y="88" type="line" smooth="yes"/>
      <point x="88" y="20"/>
      <point x="97" y="0"/>
    </contour>
  </outline>
</glyph>
<glyph name="uni2C32" format="2">
  <advance width="920"/>
  <unicode hex="2C32"/>
  <outline>
    <contour>
      <point x="155" y="0" type="curve" smooth="yes"/>
      <point x="765" y="0" type="line" smooth="yes"/>
      <point x="823" y="0"/>
      <point x="832" y="24"/>
      <point x="832" y="88" type="curve" smooth="yes"/>
      <point x="832" y="448" type="line" smooth="yes"/>
      <point x="832" y="512"/>
      <point x="823" y="536"/>
      <point x="765" y="536" type="curve" smooth="yes"/>
      <point x="581" y="536" type="line" smooth="yes"/>
      <point x="522" y="536"/>
      <point x="514" y="512"/>
      <point x="514" y="448" type="curve" smooth="yes"/>
      <point x="514" y="71" type="line"/>
      <point x="406" y="71" type="line"/>
      <point x="406" y="448" type="line" smooth="yes"/>
      <point x="406" y="512"/>
      <point x="397" y="536"/>
      <point x="339" y="536" type="curve" smooth="yes"/>
      <point x="155" y="536" type="line" smooth="yes"/>
      <point x="97" y="536"/>
      <point x="88" y="512"/>
      <point x="88" y="448" type="curve" smooth="yes"/>
      <point x="88" y="88" type="line" smooth="yes"/>
      <point x="88" y="24"/>
      <point x="97" y="0"/>
    </contour>
    <contour>
      <point x="208" y="71" type="line" smooth="yes"/>
      <point x="184" y="71"/>
      <point x="174" y="76"/>
      <point x="174" y="110" type="curve" smooth="yes"/>
      <point x="174" y="426" type="line" smooth="yes"/>
      <point x="174" y="460"/>
      <point x="184" y="465"/>
      <point x="208" y="465" type="curve" smooth="yes"/>
      <point x="286" y="465" type="line" smooth="yes"/>
      <point x="311" y="465"/>
      <point x="320" y="460"/>
      <point x="320" y="426" type="curve" smooth="yes"/>
      <point x="320" y="71" type="line"/>
    </contour>
    <contour>
      <point x="600" y="71" type="line"/>
      <point x="600" y="426" type="line" smooth="yes"/>
      <point x="600" y="460"/>
      <point x="609" y="465"/>
      <point x="634" y="465" type="curve" smooth="yes"/>
      <point x="712" y="465" type="line" smooth="yes"/>
      <point x="736" y="465"/>
      <point x="746" y="460"/>
      <point x="746" y="426" type="curve" smooth="yes"/>
      <point x="746" y="110" type="line" smooth="yes"/>
      <point x="746" y="76"/>
      <point x="736" y="71"/>
      <point x="712" y="71" type="curve" smooth="yes"/>
    </contour>
  </outline>
</glyph>
<glyph name="uni2C36" format="2">
  <advance width="920"/>
  <unicode hex="2C36"/>
  <outline>
    <contour>
      <point x="155" y="0" type="curve" smooth="yes"/>
      <point x="339" y="0" type="line" smooth="yes"/>
      <point x="397" y="0"/>
      <point x="406" y="24"/>
      <point x="406" y="88" type="curve" smooth="yes"/>
      <point x="406" y="465" type="line"/>
      <point x="514" y="465" type="line"/>
      <point x="514" y="88" type="line" smooth="yes"/>
      <point x="514" y="24"/>
      <point x="522" y="0"/>
      <point x="581" y="0" type="curve" smooth="yes"/>
      <point x="765" y="0" type="line" smooth="yes"/>
      <point x="823" y="0"/>
      <point x="832" y="24"/>
      <point x="832" y="88" type="curve" smooth="yes"/>
      <point x="832" y="448" type="line" smooth="yes"/>
      <point x="832" y="512"/>
      <point x="823" y="536"/>
      <point x="765" y="536" type="curve" smooth="yes"/>
      <point x="521" y="536" type="line"/>
      <point x="539" y="578"/>
      <point x="583" y="609"/>
      <point x="670" y="609" type="curve" smooth="yes"/>
      <point x="690" y="609" type="line"/>
      <point x="690" y="680" type="line"/>
      <point x="675" y="680" type="line" smooth="yes"/>
      <point x="555" y="680"/>
      <point x="491" y="631"/>
      <point x="460" y="576" type="curve"/>
      <point x="429" y="631"/>
      <point x="365" y="680"/>
      <point x="245" y="680" type="curve" smooth="yes"/>
      <point x="230" y="680" type="line"/>
      <point x="230" y="609" type="line"/>
      <point x="250" y="609" type="line" smooth="yes"/>
      <point x="336" y="609"/>
      <point x="381" y="578"/>
      <point x="398" y="536" type="curve"/>
      <point x="155" y="536" type="line" smooth="yes"/>
      <point x="97" y="536"/>
      <point x="88" y="512"/>
      <point x="88" y="448" type="curve" smooth="yes"/>
      <point x="88" y="88" type="line" smooth="yes"/>
      <point x="88" y="24"/>
      <point x="97" y="0"/>
    </contour>
    <contour>
      <point x="208" y="71" type="line" smooth="yes"/>
      <point x="184" y="71"/>
      <point x="174" y="76"/>
      <point x="174" y="110" type="curve" smooth="yes"/>
      <point x="174" y="426" type="line" smooth="yes"/>
      <point x="174" y="460"/>
      <point x="184" y="465"/>
      <point x="208" y="465" type="curve" smooth="yes"/>
      <point x="320" y="465" type="line"/>
      <point x="320" y="110" type="line" smooth="yes"/>
      <point x="320" y="76"/>
      <point x="311" y="71"/>
      <point x="286" y="71" type="curve" smooth="yes"/>
    </contour>
    <contour>
      <point x="634" y="71" type="line" smooth="yes"/>
      <point x="609" y="71"/>
      <point x="600" y="76"/>
      <point x="600" y="110" type="curve" smooth="yes"/>
      <point x="600" y="465" type="line"/>
      <point x="712" y="465" type="line" smooth="yes"/>
      <point x="736" y="465"/>
      <point x="746" y="460"/>
      <point x="746" y="426" type="curve" smooth="yes"/>
      <point x="746" y="110" type="line" smooth="yes"/>
      <point x="746" y="76"/>
      <point x="736" y="71"/>
      <point x="712" y="71" type="curve" smooth="yes"/>
    </contour>
  </outline>
</glyph>
<glyph name="uni2C38" format="2">
  <advance width="834"/>
  <unicode hex="2C38"/>
  <outline>
    <contour>
      <point x="88" y="0" type="line"/>
      <point x="181" y="0" type="line" smooth="yes"/>
      <point x="299" y="0"/>
      <point x="377" y="94"/>
      <point x="386" y="242" type="curve"/>
      <point x="452" y="242" type="line"/>
      <point x="452" y="88" type="line" smooth="yes"/>
      <point x="452" y="24"/>
      <point x="461" y="0"/>
      <point x="520" y="0" type="curve" smooth="yes"/>
      <point x="698" y="0" type="line" smooth="yes"/>
      <point x="757" y="0"/>
      <point x="766" y="24"/>
      <point x="766" y="88" type="curve" smooth="yes"/>
      <point x="766" y="225" type="line" smooth="yes"/>
      <point x="766" y="288"/>
      <point x="757" y="312"/>
      <point x="698" y="312" type="curve" smooth="yes"/>
      <point x="385" y="312" type="line"/>
      <point x="374" y="461"/>
      <point x="295" y="536"/>
      <point x="181" y="536" type="curve" smooth="yes"/>
      <point x="88" y="536" type="line"/>
    </contour>
    <contour>
      <point x="174" y="71" type="line"/>
      <point x="174" y="242" type="line"/>
      <point x="296" y="242" type="line"/>
      <point x="292" y="136"/>
      <point x="257" y="71"/>
      <point x="195" y="71" type="curve" smooth="yes"/>
    </contour>
    <contour>
      <point x="174" y="312" type="line"/>
      <point x="174" y="466" type="line"/>
      <point x="196" y="466" type="line" smooth="yes"/>
      <point x="256" y="466"/>
      <point x="289" y="405"/>
      <point x="296" y="312" type="curve"/>
    </contour>
    <contour>
      <point x="572" y="71" type="line" smooth="yes"/>
      <point x="548" y="71"/>
      <point x="538" y="76"/>
      <point x="538" y="110" type="curve" smooth="yes"/>
      <point x="538" y="242" type="line"/>
      <point x="646" y="242" type="line" smooth="yes"/>
      <point x="670" y="242"/>
      <point x="680" y="237"/>
      <point x="680" y="203" type="curve" smooth="yes"/>
      <point x="680" y="110" type="line" smooth="yes"/>
      <point x="680" y="76"/>
      <point x="670" y="71"/>
      <point x="646" y="71" type="curve" smooth="yes"/>
    </contour>
  </outline>
</glyph>
<glyph name="uni2C3C" format="2">
  <advance width="919"/>
  <unicode hex="2C3C"/>
  <outline>
    <contour>
      <point x="88" y="0" type="line"/>
      <point x="174" y="0" type="line"/>
      <point x="174" y="417" type="line" smooth="yes"/>
      <point x="174" y="456"/>
      <point x="174" y="465"/>
      <point x="213" y="465" type="curve" smooth="yes"/>
      <point x="281" y="465" type="line" smooth="yes"/>
      <point x="320" y="465"/>
      <point x="320" y="456"/>
      <point x="320" y="417" type="curve" smooth="yes"/>
      <point x="320" y="0" type="line"/>
      <point x="406" y="0" type="line"/>
      <point x="406" y="222" type="line"/>
      <point x="514" y="222" type="line"/>
      <point x="514" y="0" type="line"/>
      <point x="600" y="0" type="line"/>
      <point x="600" y="221" type="line"/>
      <point x="770" y="229"/>
      <point x="851" y="306"/>
      <point x="851" y="427" type="curve" smooth="yes"/>
      <point x="851" y="490" type="line" smooth="yes"/>
      <point x="851" y="521"/>
      <point x="832" y="536"/>
      <point x="805" y="536" type="curve" smooth="yes"/>
      <point x="583" y="536" type="line" smooth="yes"/>
      <point x="522" y="536"/>
      <point x="514" y="507"/>
      <point x="514" y="453" type="curve" smooth="yes"/>
      <point x="514" y="292" type="line"/>
      <point x="406" y="292" type="line"/>
      <point x="406" y="438" type="line" smooth="yes"/>
      <point x="406" y="512"/>
      <point x="401" y="536"/>
      <point x="323" y="536" type="curve" smooth="yes"/>
      <point x="171" y="536" type="line" smooth="yes"/>
      <point x="93" y="536"/>
      <point x="88" y="515"/>
      <point x="88" y="443" type="curve" smooth="yes"/>
    </contour>
    <contour>
      <point x="600" y="292" type="curve"/>
      <point x="600" y="429" type="line" smooth="yes"/>
      <point x="600" y="453"/>
      <point x="609" y="465"/>
      <point x="632" y="465" type="curve" smooth="yes"/>
      <point x="740" y="465" type="line" smooth="yes"/>
      <point x="760" y="465"/>
      <point x="765" y="450"/>
      <point x="765" y="424" type="curve" smooth="yes"/>
      <point x="765" y="364"/>
      <point x="739" y="296"/>
    </contour>
  </outline>
</glyph>
<glyph name="uni2C3D" format="2">
  <advance width="397"/>
  <unicode hex="2C3D"/>
  <outline>
    <contour>
      <point x="224" y="0" type="line"/>
      <point x="310" y="0" type="line"/>
      <point x="310" y="225" type="line" smooth="yes"/>
      <point x="310" y="288"/>
      <point x="301" y="313"/>
      <point x="242" y="313" type="curve" smooth="yes"/>
      <point x="129" y="313" type="line"/>
      <point x="189" y="536" type="line"/>
      <point x="108" y="536" type="line"/>
      <point x="29" y="242" type="line"/>
      <point x="189" y="242" type="line" smooth="yes"/>
      <point x="214" y="242"/>
      <point x="224" y="237"/>
      <point x="224" y="203" type="curve" smooth="yes"/>
    </contour>
  </outline>
</glyph>
<glyph name="uni2C42" format="2">
  <advance width="663"/>
  <unicode hex="2C42"/>
  <outline>
    <contour>
      <point x="88" y="0" type="line"/>
      <point x="174" y="0" type="line"/>
      <point x="174" y="417" type="line" smooth="yes"/>
      <point x="174" y="456"/>
      <point x="174" y="465"/>
      <point x="213" y="465" type="curve" smooth="yes"/>
      <point x="281" y="465" type="line"/>
      <point x="281" y="243" type="line" smooth="yes"/>
      <point x="281" y="180"/>
      <point x="290" y="155"/>
      <point x="349" y="155" type="curve" smooth="yes"/>
      <point x="527" y="155" type="line" smooth="yes"/>
      <point x="586" y="155"/>
      <point x="595" y="180"/>
      <point x="595" y="243" type="curve" smooth="yes"/>
      <point x="595" y="448" type="line" smooth="yes"/>
      <point x="595" y="512"/>
      <point x="586" y="536"/>
      <point x="527" y="536" type="curve" smooth="yes"/>
      <point x="171" y="536" type="line" smooth="yes"/>
      <point x="93" y="536"/>
      <point x="88" y="515"/>
      <point x="88" y="443" type="curve" smooth="yes"/>
    </contour>
    <contour>
      <point x="401" y="226" type="line" smooth="yes"/>
      <point x="377" y="226"/>
      <point x="367" y="231"/>
      <point x="367" y="265" type="curve" smooth="yes"/>
      <point x="367" y="465" type="line"/>
      <point x="475" y="465" type="line" smooth="yes"/>
      <point x="499" y="465"/>
      <point x="509" y="460"/>
      <point x="509" y="426" type="curve" smooth="yes"/>
      <point x="509" y="265" type="line" smooth="yes"/>
      <point x="509" y="231"/>
      <point x="499" y="226"/>
      <point x="475" y="226" type="curve" smooth="yes"/>
    </contour>
  </outline>
</glyph>
<glyph name="uni2C43" format="2">
  <advance width="486"/>
  <unicode hex="2C43"/>
  <outline>
    <contour>
      <point x="176" y="0" type="curve" smooth="yes"/>
      <point x="321" y="0" type="line" smooth="yes"/>
      <point x="410" y="0"/>
      <point x="418" y="58"/>
      <point x="418" y="104" type="curve" smooth="yes"/>
      <point x="418" y="221"/>
      <point x="332" y="312"/>
      <point x="174" y="313" type="curve"/>
      <point x="174" y="536" type="line"/>
      <point x="88" y="536" type="line"/>
      <point x="88" y="72" type="line" smooth="yes"/>
      <point x="88" y="10"/>
      <point x="102" y="0"/>
    </contour>
    <contour>
      <point x="198" y="71" type="line" smooth="yes"/>
      <point x="178" y="71"/>
      <point x="174" y="83"/>
      <point x="174" y="103" type="curve" smooth="yes"/>
      <point x="174" y="244" type="line"/>
      <point x="290" y="240"/>
      <point x="333" y="183"/>
      <point x="333" y="116" type="curve" smooth="yes"/>
      <point x="333" y="91"/>
      <point x="330" y="71"/>
      <point x="303" y="71" type="curve" smooth="yes"/>
    </contour>
  </outline>
</glyph>
<glyph name="uni2C46" format="2">
  <advance width="738"/>
  <unicode hex="2C46"/>
  <outline>
    <contour>
      <point x="175" y="0" type="curve" smooth="yes"/>
      <point x="583" y="0" type="line" smooth="yes"/>
      <point x="642" y="0"/>
      <point x="650" y="24"/>
      <point x="650" y="88" type="curve" smooth="yes"/>
      <point x="650" y="448" type="line" smooth="yes"/>
      <point x="650" y="512"/>
      <point x="642" y="536"/>
      <point x="583" y="536" type="curve" smooth="yes"/>
      <point x="166" y="536" type="line" smooth="yes"/>
      <point x="91" y="536"/>
      <point x="78" y="478"/>
      <point x="78" y="432" type="curve" smooth="yes"/>
      <point x="78" y="360"/>
      <point x="124" y="306"/>
      <point x="196" y="275" type="curve"/>
      <point x="124" y="238"/>
      <point x="78" y="176"/>
      <point x="78" y="104" type="curve" smooth="yes"/>
      <point x="78" y="58"/>
      <point x="86" y="0"/>
    </contour>
    <contour>
      <point x="193" y="71" type="line" smooth="yes"/>
      <point x="166" y="71"/>
      <point x="163" y="91"/>
      <point x="163" y="116" type="curve" smooth="yes"/>
      <point x="163" y="180"/>
      <point x="223" y="235"/>
      <point x="332" y="243" type="curve"/>
      <point x="332" y="71" type="line"/>
    </contour>
    <contour>
      <point x="332" y="313" type="line"/>
      <point x="219" y="318"/>
      <point x="163" y="356"/>
      <point x="163" y="420" type="curve" smooth="yes"/>
      <point x="163" y="446"/>
      <point x="163" y="465"/>
      <point x="205" y="465" type="curve" smooth="yes"/>
      <point x="332" y="465" type="line"/>
    </contour>
    <contour>
      <point x="418" y="71" type="line"/>
      <point x="418" y="242" type="line"/>
      <point x="564" y="242" type="line"/>
      <point x="564" y="110" type="line" smooth="yes"/>
      <point x="564" y="76"/>
      <point x="555" y="71"/>
      <point x="530" y="71" type="curve" smooth="yes"/>
    </contour>
    <contour>
      <point x="418" y="312" type="line"/>
      <point x="418" y="465" type="line"/>
      <point x="530" y="465" type="line" smooth="yes"/>
      <point x="555" y="465"/>
      <point x="564" y="460"/>
      <point x="564" y="426" type="curve" smooth="yes"/>
      <point x="564" y="312" type="line"/>
    </contour>
  </outline>
</glyph>
<glyph name="uni2C48" format="2">
  <advance width="699"/>
  <unicode hex="2C48"/>
  <outline>
    <contour>
      <point x="57" y="0" type="line"/>
      <point x="138" y="0" type="line"/>
      <point x="212" y="194" type="line"/>
      <point x="317" y="194" type="line"/>
      <point x="317" y="88" type="line" smooth="yes"/>
      <point x="317" y="24"/>
      <point x="326" y="0"/>
      <point x="385" y="0" type="curve" smooth="yes"/>
      <point x="631" y="0" type="line"/>
      <point x="631" y="225" type="line" smooth="yes"/>
      <point x="631" y="288"/>
      <point x="622" y="313"/>
      <point x="563" y="313" type="curve" smooth="yes"/>
      <point x="385" y="313" type="line" smooth="yes"/>
      <point x="340" y="313"/>
      <point x="325" y="298"/>
      <point x="319" y="265" type="curve"/>
      <point x="240" y="265" type="line"/>
      <point x="344" y="536" type="line"/>
      <point x="39" y="536" type="line"/>
      <point x="39" y="465" type="line"/>
      <point x="236" y="465" type="line"/>
    </contour>
    <contour>
      <point x="438" y="71" type="line" smooth="yes"/>
      <point x="413" y="71"/>
      <point x="403" y="76"/>
      <point x="403" y="110" type="curve" smooth="yes"/>
      <point x="403" y="203" type="line" smooth="yes"/>
      <point x="403" y="237"/>
      <point x="413" y="242"/>
      <point x="438" y="242" type="curve" smooth="yes"/>
      <point x="511" y="242" type="line" smooth="yes"/>
      <point x="535" y="242"/>
      <point x="545" y="237"/>
      <point x="545" y="203" type="curve" smooth="yes"/>
      <point x="545" y="71" type="line"/>
    </contour>
  </outline>
</glyph>
<glyph name="uni2C4B" format="2">
  <advance width="707"/>
  <unicode hex="2C4B"/>
  <outline>
    <contour>
      <point x="195" y="0" type="line"/>
      <point x="512" y="0" type="line"/>
      <point x="512" y="136" type="line" smooth="yes"/>
      <point x="512" y="172"/>
      <point x="503" y="210"/>
      <point x="485" y="242" type="curve"/>
      <point x="571" y="242" type="line" smooth="yes"/>
      <point x="635" y="242"/>
      <point x="639" y="271"/>
      <point x="639" y="330" type="curve" smooth="yes"/>
      <point x="639" y="536" type="line"/>
      <point x="553" y="536" type="line"/>
      <point x="553" y="352" type="line" smooth="yes"/>
      <point x="553" y="322"/>
      <point x="548" y="313"/>
      <point x="519" y="313" type="curve" smooth="yes"/>
      <point x="396" y="313" type="line"/>
      <point x="396" y="536" type="line"/>
      <point x="311" y="536" type="line"/>
      <point x="311" y="313" type="line"/>
      <point x="188" y="313" type="line" smooth="yes"/>
      <point x="159" y="313"/>
      <point x="154" y="322"/>
      <point x="154" y="352" type="curve" smooth="yes"/>
      <point x="154" y="536" type="line"/>
      <point x="68" y="536" type="line"/>
      <point x="68" y="330" type="line" smooth="yes"/>
      <point x="68" y="271"/>
      <point x="72" y="242"/>
      <point x="136" y="242" type="curve" smooth="yes"/>
      <point x="218" y="242" type="line"/>
      <point x="201" y="210"/>
      <point x="195" y="173"/>
      <point x="195" y="137" type="curve" smooth="yes"/>
    </contour>
    <contour>
      <point x="281" y="71" type="line"/>
      <point x="281" y="136" type="line" smooth="yes"/>
      <point x="281" y="198"/>
      <point x="291" y="241"/>
      <point x="354" y="241" type="curve" smooth="yes"/>
      <point x="417" y="241"/>
      <point x="426" y="205"/>
      <point x="426" y="137" type="curve" smooth="yes"/>
      <point x="426" y="71" type="line"/>
    </contour>
  </outline>
</glyph>
<glyph name="uni2C4C" format="2">
  <advance width="669"/>
  <unicode hex="2C4C"/>
  <outline>
    <contour>
      <point x="418" y="0" type="curve" smooth="yes"/>
      <point x="474" y="0" type="line" smooth="yes"/>
      <point x="533" y="0"/>
      <point x="537" y="15"/>
      <point x="546" y="72" type="curve" smooth="yes"/>
      <point x="620" y="536" type="line"/>
      <point x="538" y="536" type="line"/>
      <point x="471" y="103" type="line" smooth="yes"/>
      <point x="467" y="78"/>
      <point x="462" y="71"/>
      <point x="446" y="71" type="curve" smooth="yes"/>
      <point x="431" y="71"/>
      <point x="426" y="77"/>
      <point x="422" y="103" type="curve" smooth="yes"/>
      <point x="368" y="464" type="line" smooth="yes"/>
      <point x="359" y="526"/>
      <point x="349" y="536"/>
      <point x="274" y="536" type="curve" smooth="yes"/>
      <point x="156" y="536" type="line" smooth="yes"/>
      <point x="67" y="536"/>
      <point x="59" y="478"/>
      <point x="59" y="432" type="curve" smooth="yes"/>
      <point x="59" y="319"/>
      <point x="167" y="250"/>
      <point x="317" y="245" type="curve"/>
      <point x="347" y="72" type="line" smooth="yes"/>
      <point x="357" y="15"/>
      <point x="358" y="0"/>
    </contour>
    <contour>
      <point x="307" y="313" type="line"/>
      <point x="200" y="319"/>
      <point x="144" y="357"/>
      <point x="144" y="420" type="curve" smooth="yes"/>
      <point x="144" y="445"/>
      <point x="146" y="465"/>
      <point x="174" y="465" type="curve" smooth="yes"/>
      <point x="259" y="465" type="line" smooth="yes"/>
      <point x="279" y="465"/>
      <point x="285" y="453"/>
      <point x="288" y="433" type="curve" smooth="yes"/>
    </contour>
  </outline>
</glyph>
<glyph name="uni2C4D" format="2">
  <advance width="698"/>
  <unicode hex="2C4D"/>
  <outline>
    <contour>
      <point x="190" y="0" type="line"/>
      <point x="507" y="0" type="line"/>
      <point x="507" y="136" type="line" smooth="yes"/>
      <point x="507" y="172"/>
      <point x="499" y="210"/>
      <point x="480" y="242" type="curve"/>
      <point x="659" y="242" type="line"/>
      <point x="546" y="536" type="line"/>
      <point x="474" y="536" type="line"/>
      <point x="501" y="458" type="line"/>
      <point x="196" y="458" type="line"/>
      <point x="225" y="536" type="line"/>
      <point x="152" y="536" type="line"/>
      <point x="39" y="242" type="line"/>
      <point x="213" y="242" type="line"/>
      <point x="196" y="210"/>
      <point x="190" y="173"/>
      <point x="190" y="137" type="curve" smooth="yes"/>
    </contour>
    <contour>
      <point x="276" y="71" type="line"/>
      <point x="276" y="136" type="line" smooth="yes"/>
      <point x="276" y="198"/>
      <point x="286" y="241"/>
      <point x="349" y="241" type="curve" smooth="yes"/>
      <point x="413" y="241"/>
      <point x="421" y="205"/>
      <point x="421" y="137" type="curve" smooth="yes"/>
      <point x="421" y="71" type="line"/>
    </contour>
    <contour>
      <point x="145" y="313" type="line"/>
      <point x="173" y="392" type="line"/>
      <point x="311" y="392" type="line"/>
      <point x="311" y="313" type="line"/>
    </contour>
    <contour>
      <point x="387" y="313" type="line"/>
      <point x="387" y="392" type="line"/>
      <point x="525" y="392" type="line"/>
      <point x="553" y="313" type="line"/>
    </contour>
  </outline>
</glyph>
<glyph name="uni2C4F" format="2">
  <advance width="639"/>
  <unicode hex="2C4F"/>
  <outline>
    <contour>
      <point x="245" y="0" type="line"/>
      <point x="561" y="0" type="line"/>
      <point x="561" y="129" type="line" smooth="yes"/>
      <point x="561" y="182"/>
      <point x="547" y="237"/>
      <point x="509" y="271" type="curve"/>
      <point x="547" y="306"/>
      <point x="561" y="361"/>
      <point x="561" y="414" type="curve" smooth="yes"/>
      <point x="561" y="536" type="line"/>
      <point x="245" y="536" type="line"/>
      <point x="245" y="413" type="line" smooth="yes"/>
      <point x="245" y="378"/>
      <point x="249" y="343"/>
      <point x="262" y="313" type="curve"/>
      <point x="127" y="313" type="line" smooth="yes"/>
      <point x="79" y="313"/>
      <point x="39" y="273"/>
      <point x="39" y="224" type="curve" smooth="yes"/>
      <point x="39" y="175"/>
      <point x="79" y="135"/>
      <point x="127" y="135" type="curve" smooth="yes"/>
      <point x="177" y="135"/>
      <point x="217" y="175"/>
      <point x="217" y="224" type="curve" smooth="yes"/>
      <point x="217" y="233"/>
      <point x="215" y="242"/>
      <point x="213" y="250" type="curve"/>
      <point x="273" y="250" type="line"/>
      <point x="250" y="217"/>
      <point x="245" y="172"/>
      <point x="245" y="130" type="curve" smooth="yes"/>
    </contour>
    <contour>
      <point x="127" y="185" type="curve" smooth="yes"/>
      <point x="106" y="185"/>
      <point x="89" y="202"/>
      <point x="89" y="224" type="curve" smooth="yes"/>
      <point x="89" y="245"/>
      <point x="105" y="262"/>
      <point x="126" y="262" type="curve" smooth="yes"/>
      <point x="151" y="262"/>
      <point x="167" y="245"/>
      <point x="167" y="224" type="curve" smooth="yes"/>
      <point x="167" y="202"/>
      <point x="150" y="185"/>
    </contour>
    <contour>
      <point x="331" y="71" type="line"/>
      <point x="331" y="125" type="line" smooth="yes"/>
      <point x="331" y="191"/>
      <point x="340" y="236"/>
      <point x="403" y="236" type="curve" smooth="yes"/>
      <point x="467" y="236"/>
      <point x="475" y="198"/>
      <point x="475" y="125" type="curve" smooth="yes"/>
      <point x="475" y="71" type="line"/>
    </contour>
    <contour>
      <point x="403" y="308" type="curve" smooth="yes"/>
      <point x="340" y="308"/>
      <point x="331" y="352"/>
      <point x="331" y="418" type="curve" smooth="yes"/>
      <point x="331" y="465" type="line"/>
      <point x="475" y="465" type="line"/>
      <point x="475" y="418" type="line" smooth="yes"/>
      <point x="475" y="345"/>
      <point x="467" y="308"/>
    </contour>
  </outline>
</glyph>
<glyph name="uni2C51" format="2">
  <advance width="722"/>
  <unicode hex="2C51"/>
  <outline>
    <contour>
      <point x="39" y="0" type="line"/>
      <point x="683" y="0" type="line"/>
      <point x="454" y="492" type="line" smooth="yes"/>
      <point x="441" y="519"/>
      <point x="430" y="536"/>
      <point x="404" y="536" type="curve" smooth="yes"/>
      <point x="318" y="536" type="line" smooth="yes"/>
      <point x="292" y="536"/>
      <point x="280" y="519"/>
      <point x="268" y="492" type="curve" smooth="yes"/>
    </contour>
    <contour>
      <point x="153" y="71" type="line"/>
      <point x="225" y="224" type="line"/>
      <point x="323" y="224" type="line"/>
      <point x="323" y="71" type="line"/>
    </contour>
    <contour>
      <point x="399" y="71" type="line"/>
      <point x="399" y="224" type="line"/>
      <point x="497" y="224" type="line"/>
      <point x="568" y="71" type="line"/>
    </contour>
    <contour>
      <point x="255" y="290" type="line"/>
      <point x="330" y="451" type="line" smooth="yes"/>
      <point x="336" y="463"/>
      <point x="342" y="477"/>
      <point x="350" y="477" type="curve" smooth="yes"/>
      <point x="372" y="477" type="line" smooth="yes"/>
      <point x="379" y="477"/>
      <point x="386" y="463"/>
      <point x="392" y="451" type="curve" smooth="yes"/>
      <point x="466" y="290" type="line"/>
    </contour>
  </outline>
</glyph>
<glyph name="uni2C53" format="2">
  <advance width="746"/>
  <unicode hex="2C53"/>
  <outline>
    <contour>
      <point x="88" y="-68" type="line"/>
      <point x="622" y="100" type="line" smooth="yes"/>
      <point x="657" y="111"/>
      <point x="658" y="152"/>
      <point x="658" y="209" type="curve" smooth="yes"/>
      <point x="658" y="448" type="line" smooth="yes"/>
      <point x="658" y="507"/>
      <point x="654" y="536"/>
      <point x="591" y="536" type="curve" smooth="yes"/>
      <point x="155" y="536" type="line" smooth="yes"/>
      <point x="92" y="536"/>
      <point x="88" y="507"/>
      <point x="88" y="448" type="curve" smooth="yes"/>
    </contour>
    <contour>
      <point x="174" y="33" type="line"/>
      <point x="174" y="426" type="line" smooth="yes"/>
      <point x="174" y="456"/>
      <point x="179" y="465"/>
      <point x="208" y="465" type="curve" smooth="yes"/>
      <point x="330" y="465" type="line"/>
      <point x="330" y="82" type="line"/>
    </contour>
    <contour>
      <point x="416" y="109" type="line"/>
      <point x="416" y="465" type="line"/>
      <point x="538" y="465" type="line" smooth="yes"/>
      <point x="567" y="465"/>
      <point x="572" y="456"/>
      <point x="572" y="426" type="curve" smooth="yes"/>
      <point x="572" y="196" type="line" smooth="yes"/>
      <point x="572" y="172"/>
      <point x="568" y="157"/>
      <point x="545" y="150" type="curve" smooth="yes"/>
    </contour>
  </outline>
</glyph>
<glyph name="uni2C55" format="2">
  <advance width="664"/>
  <unicode hex="2C55"/>
  <outline>
    <contour>
      <point x="482" y="-10" type="curve" smooth="yes"/>
      <point x="543" y="-10"/>
      <point x="585" y="0"/>
      <point x="625" y="19" type="curve"/>
      <point x="625" y="95" type="line"/>
      <point x="584" y="79"/>
      <point x="540" y="65"/>
      <point x="480" y="65" type="curve" smooth="yes"/>
      <point x="376" y="65"/>
      <point x="313" y="121"/>
      <point x="305" y="242" type="curve"/>
      <point x="569" y="242" type="line"/>
      <point x="569" y="313" type="line"/>
      <point x="306" y="313" type="line"/>
      <point x="315" y="421"/>
      <point x="367" y="470"/>
      <point x="468" y="470" type="curve" smooth="yes"/>
      <point x="507" y="470"/>
      <point x="557" y="457"/>
      <point x="593" y="444" type="curve"/>
      <point x="618" y="515" type="line"/>
      <point x="580" y="532"/>
      <point x="523" y="546"/>
      <point x="469" y="546" type="curve" smooth="yes"/>
      <point x="331" y="546"/>
      <point x="231" y="479"/>
      <point x="216" y="313" type="curve"/>
      <point x="100" y="313" type="line" smooth="yes"/>
      <point x="62" y="313"/>
      <point x="29" y="278"/>
      <point x="29" y="233" type="curve" smooth="yes"/>
      <point x="29" y="188"/>
      <point x="62" y="153"/>
      <point x="100" y="153" type="curve" smooth="yes"/>
      <point x="139" y="153"/>
      <point x="170" y="188"/>
      <point x="170" y="233" type="curve" smooth="yes"/>
      <point x="170" y="236"/>
      <point x="170" y="239"/>
      <point x="170" y="242" type="curve"/>
      <point x="215" y="242" type="line"/>
      <point x="225" y="69"/>
      <point x="333" y="-10"/>
    </contour>
  </outline>
</glyph>
<glyph name="uni2C57" format="2">
  <advance width="784"/>
  <unicode hex="2C57"/>
  <outline>
    <contour>
      <point x="141" y="-10" type="curve" smooth="yes"/>
      <point x="274" y="-10"/>
      <point x="338" y="90"/>
      <point x="345" y="242" type="curve"/>
      <point x="439" y="242" type="line"/>
      <point x="446" y="90"/>
      <point x="510" y="-10"/>
      <point x="643" y="-10" type="curve" smooth="yes"/>
      <point x="688" y="-10"/>
      <point x="719" y="-4"/>
      <point x="745" y="6" type="curve"/>
      <point x="745" y="83" type="line"/>
      <point x="718" y="72"/>
      <point x="692" y="65"/>
      <point x="648" y="65" type="curve" smooth="yes"/>
      <point x="575" y="65"/>
      <point x="538" y="133"/>
      <point x="532" y="242" type="curve"/>
      <point x="703" y="242" type="line"/>
      <point x="703" y="313" type="line"/>
      <point x="532" y="313" type="line"/>
      <point x="538" y="404"/>
      <point x="567" y="470"/>
      <point x="651" y="470" type="curve" smooth="yes"/>
      <point x="663" y="470"/>
      <point x="700" y="468"/>
      <point x="727" y="456" type="curve"/>
      <point x="745" y="531" type="line"/>
      <point x="715" y="541"/>
      <point x="678" y="546"/>
      <point x="637" y="546" type="curve" smooth="yes"/>
      <point x="501" y="546"/>
      <point x="449" y="444"/>
      <point x="440" y="313" type="curve"/>
      <point x="344" y="313" type="line"/>
      <point x="334" y="444"/>
      <point x="282" y="546"/>
      <point x="147" y="546" type="curve" smooth="yes"/>
      <point x="106" y="546"/>
      <point x="69" y="541"/>
      <point x="39" y="531" type="curve"/>
      <point x="57" y="456" type="line"/>
      <point x="84" y="468"/>
      <point x="121" y="470"/>
      <point x="133" y="470" type="curve" smooth="yes"/>
      <point x="217" y="470"/>
      <point x="246" y="404"/>
      <point x="252" y="313" type="curve"/>
      <point x="82" y="313" type="line"/>
      <point x="82" y="242" type="line"/>
      <point x="252" y="242" type="line"/>
      <point x="247" y="133"/>
      <point x="209" y="65"/>
      <point x="136" y="65" type="curve" smooth="yes"/>
      <point x="92" y="65"/>
      <point x="66" y="72"/>
      <point x="40" y="83" type="curve"/>
      <point x="40" y="6" type="line"/>
      <point x="65" y="-4"/>
      <point x="96" y="-10"/>
    </contour>
  </outline>
</glyph>
<glyph name="uni2C58" format="2">
  <advance width="853"/>
  <unicode hex="2C58"/>
  <outline>
    <contour>
      <point x="711" y="-10" type="curve" smooth="yes"/>
      <point x="757" y="-10"/>
      <point x="788" y="-4"/>
      <point x="813" y="6" type="curve"/>
      <point x="813" y="83" type="line"/>
      <point x="786" y="72"/>
      <point x="760" y="65"/>
      <point x="716" y="65" type="curve" smooth="yes"/>
      <point x="644" y="65"/>
      <point x="606" y="133"/>
      <point x="600" y="242" type="curve"/>
      <point x="771" y="242" type="line"/>
      <point x="771" y="313" type="line"/>
      <point x="600" y="313" type="line"/>
      <point x="606" y="404"/>
      <point x="636" y="470"/>
      <point x="719" y="470" type="curve" smooth="yes"/>
      <point x="731" y="470"/>
      <point x="769" y="468"/>
      <point x="795" y="456" type="curve"/>
      <point x="813" y="531" type="line"/>
      <point x="784" y="541"/>
      <point x="747" y="546"/>
      <point x="705" y="546" type="curve" smooth="yes"/>
      <point x="570" y="546"/>
      <point x="518" y="444"/>
      <point x="509" y="313" type="curve"/>
      <point x="418" y="313" type="line"/>
      <point x="418" y="464" type="line" smooth="yes"/>
      <point x="418" y="521"/>
      <point x="414" y="536"/>
      <point x="339" y="536" type="curve" smooth="yes"/>
      <point x="166" y="536" type="line" smooth="yes"/>
      <point x="91" y="536"/>
      <point x="78" y="478"/>
      <point x="78" y="432" type="curve" smooth="yes"/>
      <point x="78" y="360"/>
      <point x="124" y="306"/>
      <point x="196" y="275" type="curve"/>
      <point x="124" y="238"/>
      <point x="78" y="176"/>
      <point x="78" y="104" type="curve" smooth="yes"/>
      <point x="78" y="58"/>
      <point x="86" y="0"/>
      <point x="175" y="0" type="curve" smooth="yes"/>
      <point x="330" y="0" type="line" smooth="yes"/>
      <point x="404" y="0"/>
      <point x="418" y="10"/>
      <point x="418" y="72" type="curve" smooth="yes"/>
      <point x="418" y="242" type="line"/>
      <point x="508" y="242" type="line"/>
      <point x="514" y="90"/>
      <point x="578" y="-10"/>
    </contour>
    <contour>
      <point x="193" y="71" type="line" smooth="yes"/>
      <point x="166" y="71"/>
      <point x="163" y="91"/>
      <point x="163" y="116" type="curve" smooth="yes"/>
      <point x="163" y="180"/>
      <point x="223" y="235"/>
      <point x="332" y="243" type="curve"/>
      <point x="332" y="103" type="line" smooth="yes"/>
      <point x="332" y="83"/>
      <point x="328" y="71"/>
      <point x="308" y="71" type="curve" smooth="yes"/>
    </contour>
    <contour>
      <point x="332" y="313" type="line"/>
      <point x="219" y="318"/>
      <point x="163" y="356"/>
      <point x="163" y="420" type="curve" smooth="yes"/>
      <point x="163" y="446"/>
      <point x="163" y="465"/>
      <point x="205" y="465" type="curve" smooth="yes"/>
      <point x="304" y="465" type="line" smooth="yes"/>
      <point x="329" y="465"/>
      <point x="332" y="453"/>
      <point x="332" y="433" type="curve" smooth="yes"/>
    </contour>
  </outline>
</glyph>
<glyph name="uni2C5B" format="2">
  <advance width="483"/>
  <unicode hex="2C5B"/>
  <outline>
    <contour>
      <point x="78" y="0" type="line"/>
      <point x="360" y="0" type="line"/>
      <point x="360" y="46" type="line" smooth="yes"/>
      <point x="360" y="100"/>
      <point x="353" y="156"/>
      <point x="317" y="190" type="curve"/>
      <point x="341" y="213"/>
      <point x="352" y="243"/>
      <point x="352" y="268" type="curve" smooth="yes"/>
      <point x="352" y="292"/>
      <point x="341" y="323"/>
      <point x="317" y="345" type="curve"/>
      <point x="353" y="380"/>
      <point x="360" y="436"/>
      <point x="360" y="490" type="curve" smooth="yes"/>
      <point x="360" y="536" type="line"/>
      <point x="78" y="536" type="line"/>
      <point x="78" y="489" type="line" smooth="yes"/>
      <point x="78" y="435"/>
      <point x="80" y="378"/>
      <point x="117" y="344" type="curve"/>
      <point x="95" y="323"/>
      <point x="86" y="295"/>
      <point x="86" y="268" type="curve" smooth="yes"/>
      <point x="86" y="241"/>
      <point x="95" y="212"/>
      <point x="117" y="191" type="curve"/>
      <point x="81" y="157"/>
      <point x="78" y="101"/>
      <point x="78" y="47" type="curve" smooth="yes"/>
    </contour>
    <contour>
      <point x="160" y="66" type="line"/>
      <point x="160" y="116"/>
      <point x="167" y="155"/>
      <point x="220" y="155" type="curve" smooth="yes"/>
      <point x="274" y="155"/>
      <point x="278" y="120"/>
      <point x="278" y="66" type="curve"/>
    </contour>
    <contour>
      <point x="219" y="223" type="curve" smooth="yes"/>
      <point x="178" y="223"/>
      <point x="166" y="250"/>
      <point x="166" y="268" type="curve" smooth="yes"/>
      <point x="166" y="286"/>
      <point x="178" y="313"/>
      <point x="219" y="313" type="curve" smooth="yes"/>
      <point x="260" y="313"/>
      <point x="272" y="286"/>
      <point x="272" y="268" type="curve" smooth="yes"/>
      <point x="272" y="249"/>
      <point x="260" y="223"/>
    </contour>
    <contour>
      <point x="220" y="381" type="curve" smooth="yes"/>
      <point x="167" y="381"/>
      <point x="160" y="420"/>
      <point x="160" y="470" type="curve"/>
      <point x="278" y="470" type="line"/>
      <point x="278" y="417"/>
      <point x="274" y="381"/>
    </contour>
    <contour>
      <point x="320" y="242" type="line"/>
      <point x="454" y="242" type="line"/>
      <point x="454" y="313" type="line"/>
      <point x="320" y="313" type="line"/>
    </contour>
  </outline>
</glyph>
<glyph name="uni2C5C" format="2">
  <advance width="312"/>
  <unicode hex="2C5C"/>
  <outline>
    <contour>
      <point x="128" y="0" type="line"/>
      <point x="214" y="0" type="line"/>
      <point x="214" y="536" type="line"/>
      <point x="39" y="536" type="line"/>
      <point x="39" y="465" type="line"/>
      <point x="128" y="465" type="line"/>
    </contour>
  </outline>
</glyph>
<glyph name="uni2C5D" format="2">
  <advance width="644"/>
  <unicode hex="2C5D"/>
  <outline>
    <contour>
      <point x="460" y="0" type="line"/>
      <point x="546" y="0" type="line"/>
      <point x="546" y="536" type="line"/>
      <point x="460" y="536" type="line"/>
      <point x="460" y="326" type="line"/>
      <point x="68" y="509" type="line"/>
      <point x="68" y="27" type="line"/>
      <point x="460" y="207" type="line"/>
    </contour>
    <contour>
      <point x="146" y="141" type="line"/>
      <point x="146" y="232" type="line"/>
      <point x="376" y="232" type="line"/>
    </contour>
    <contour>
      <point x="146" y="299" type="line"/>
      <point x="146" y="395" type="line"/>
      <point x="376" y="299" type="line"/>
    </contour>
  </outline>
</glyph>
<glyph name="u1E000" format="2">
  <unicode hex="1E000"/>
  <outline>
    <contour>
      <point x="-158" y="605" type="line"/>
      <point x="-102" y="605" type="line"/>
      <point x="-102" y="703" type="line" smooth="yes"/>
      <point x="-102" y="716"/>
      <point x="-100" y="721"/>
      <point x="-85" y="721" type="curve" smooth="yes"/>
      <point x="-28" y="721" type="line"/>
      <point x="-28" y="605" type="line"/>
      <point x="28" y="605" type="line"/>
      <point x="28" y="721" type="line"/>
      <point x="85" y="721" type="line" smooth="yes"/>
      <point x="100" y="721"/>
      <point x="102" y="716"/>
      <point x="102" y="703" type="curve" smooth="yes"/>
      <point x="102" y="605" type="line"/>
      <point x="158" y="605" type="line"/>
      <point x="158" y="719" type="line" smooth="yes"/>
      <point x="158" y="750"/>
      <point x="156" y="765"/>
      <point x="119" y="765" type="curve" smooth="yes"/>
      <point x="28" y="765" type="line"/>
      <point x="28" y="874" type="line"/>
      <point x="-28" y="874" type="line"/>
      <point x="-28" y="765" type="line"/>
      <point x="-119" y="765" type="line" smooth="yes"/>
      <point x="-156" y="765"/>
      <point x="-158" y="750"/>
      <point x="-158" y="719" type="curve" smooth="yes"/>
    </contour>
  </outline>
</glyph>
<glyph name="u1E001" format="2">
  <unicode hex="1E001"/>
  <outline>
    <contour>
      <point x="-119" y="605" type="curve" smooth="yes"/>
      <point x="149" y="605" type="line"/>
      <point x="149" y="649" type="line"/>
      <point x="-85" y="649" type="line" smooth="yes"/>
      <point x="-95" y="649"/>
      <point x="-102" y="649"/>
      <point x="-102" y="667" type="curve" smooth="yes"/>
      <point x="-102" y="709" type="line"/>
      <point x="115" y="729" type="line" smooth="yes"/>
      <point x="156" y="733"/>
      <point x="158" y="741"/>
      <point x="158" y="769" type="curve" smooth="yes"/>
      <point x="158" y="874" type="line"/>
      <point x="102" y="874" type="line"/>
      <point x="102" y="789" type="line" smooth="yes"/>
      <point x="102" y="775"/>
      <point x="100" y="771"/>
      <point x="86" y="770" type="curve" smooth="yes"/>
      <point x="28" y="765" type="line"/>
      <point x="28" y="874" type="line"/>
      <point x="-28" y="874" type="line"/>
      <point x="-28" y="761" type="line"/>
      <point x="-102" y="753" type="line"/>
      <point x="-102" y="874" type="line"/>
      <point x="-158" y="874" type="line"/>
      <point x="-158" y="651" type="line" smooth="yes"/>
      <point x="-158" y="616"/>
      <point x="-152" y="605"/>
    </contour>
  </outline>
</glyph>
<glyph name="u1E003" format="2">
  <unicode hex="1E003"/>
  <outline>
    <contour>
      <point x="-140" y="605" type="line"/>
      <point x="-87" y="605" type="line"/>
      <point x="-46" y="697" type="line"/>
      <point x="8" y="697" type="line"/>
      <point x="8" y="651" type="line" smooth="yes"/>
      <point x="8" y="618"/>
      <point x="13" y="605"/>
      <point x="46" y="605" type="curve" smooth="yes"/>
      <point x="183" y="605" type="line"/>
      <point x="183" y="719" type="line" smooth="yes"/>
      <point x="183" y="752"/>
      <point x="178" y="765"/>
      <point x="144" y="765" type="curve" smooth="yes"/>
      <point x="46" y="765" type="line" smooth="yes"/>
      <point x="22" y="765"/>
      <point x="12" y="756"/>
      <point x="9" y="741" type="curve"/>
      <point x="-30" y="741" type="line"/>
      <point x="28" y="874" type="line"/>
      <point x="-159" y="874" type="line" smooth="yes"/>
      <point x="-170" y="874"/>
      <point x="-183" y="869"/>
      <point x="-183" y="854" type="curve" smooth="yes"/>
      <point x="-183" y="817" type="line" smooth="yes"/>
      <point x="-183" y="769"/>
      <point x="-156" y="718"/>
      <point x="-98" y="702" type="curve"/>
    </contour>
    <contour>
      <point x="-82" y="747" type="line"/>
      <point x="-121" y="758"/>
      <point x="-127" y="786"/>
      <point x="-127" y="812" type="curve" smooth="yes"/>
      <point x="-127" y="826"/>
      <point x="-125" y="830"/>
      <point x="-113" y="830" type="curve" smooth="yes"/>
      <point x="-45" y="830" type="line"/>
    </contour>
    <contour>
      <point x="80" y="649" type="line" smooth="yes"/>
      <point x="68" y="649"/>
      <point x="63" y="651"/>
      <point x="63" y="667" type="curve" smooth="yes"/>
      <point x="63" y="703" type="line" smooth="yes"/>
      <point x="63" y="718"/>
      <point x="68" y="720"/>
      <point x="80" y="720" type="curve" smooth="yes"/>
      <point x="111" y="720" type="line" smooth="yes"/>
      <point x="123" y="720"/>
      <point x="127" y="718"/>
      <point x="127" y="703" type="curve" smooth="yes"/>
      <point x="127" y="649" type="line"/>
    </contour>
  </outline>
</glyph>
<glyph name="u1E004" format="2">
  <unicode hex="1E004"/>
  <outline>
    <contour>
      <point x="-147" y="605" type="curve" smooth="yes"/>
      <point x="-80" y="605" type="line" smooth="yes"/>
      <point x="-36" y="605"/>
      <point x="-25" y="618"/>
      <point x="-25" y="656" type="curve" smooth="yes"/>
      <point x="-25" y="830" type="line"/>
      <point x="11" y="830" type="line"/>
      <point x="23" y="830"/>
      <point x="28" y="828"/>
      <point x="28" y="813" type="curve" smooth="yes"/>
      <point x="28" y="651" type="line" smooth="yes"/>
      <point x="28" y="618"/>
      <point x="33" y="605"/>
      <point x="66" y="605" type="curve" smooth="yes"/>
      <point x="164" y="605" type="line" smooth="yes"/>
      <point x="198" y="605"/>
      <point x="203" y="618"/>
      <point x="203" y="651" type="curve" smooth="yes"/>
      <point x="203" y="729" type="line" smooth="yes"/>
      <point x="203" y="762"/>
      <point x="198" y="774"/>
      <point x="164" y="774" type="curve" smooth="yes"/>
      <point x="83" y="774" type="line"/>
      <point x="83" y="828" type="line" smooth="yes"/>
      <point x="83" y="861"/>
      <point x="73" y="874"/>
      <point x="40" y="874" type="curve" smooth="yes"/>
      <point x="-147" y="874" type="line" smooth="yes"/>
      <point x="-191" y="874"/>
      <point x="-203" y="861"/>
      <point x="-203" y="823" type="curve" smooth="yes"/>
      <point x="-203" y="656" type="line" smooth="yes"/>
      <point x="-203" y="619"/>
      <point x="-191" y="605"/>
    </contour>
    <contour>
      <point x="-123" y="649" type="line" smooth="yes"/>
      <point x="-142" y="649"/>
      <point x="-147" y="654"/>
      <point x="-147" y="672" type="curve" smooth="yes"/>
      <point x="-147" y="808" type="line" smooth="yes"/>
      <point x="-147" y="826"/>
      <point x="-142" y="830"/>
      <point x="-123" y="830" type="curve" smooth="yes"/>
      <point x="-81" y="830" type="line"/>
      <point x="-81" y="672" type="line" smooth="yes"/>
      <point x="-81" y="654"/>
      <point x="-85" y="649"/>
      <point x="-105" y="649" type="curve" smooth="yes"/>
    </contour>
    <contour>
      <point x="101" y="649" type="line"/>
      <point x="88" y="649"/>
      <point x="83" y="651"/>
      <point x="83" y="667" type="curve" smooth="yes"/>
      <point x="83" y="730" type="line"/>
      <point x="130" y="730" type="line" smooth="yes"/>
      <point x="143" y="730"/>
      <point x="147" y="728"/>
      <point x="147" y="713" type="curve" smooth="yes"/>
      <point x="147" y="667" type="line" smooth="yes"/>
      <point x="147" y="651"/>
      <point x="143" y="649"/>
      <point x="130" y="649" type="curve" smooth="yes"/>
    </contour>
  </outline>
</glyph>
<glyph name="u1E005" format="2">
  <unicode hex="1E005"/>
  <outline>
    <contour>
      <point x="-35" y="601" type="curve" smooth="yes"/>
      <point x="51" y="601"/>
      <point x="114" y="642"/>
      <point x="114" y="738" type="curve" smooth="yes"/>
      <point x="114" y="839"/>
      <point x="55" y="879"/>
      <point x="-28" y="879" type="curve" smooth="yes"/>
      <point x="-58" y="879"/>
      <point x="-89" y="872"/>
      <point x="-110" y="863" type="curve"/>
      <point x="-95" y="819" type="line"/>
      <point x="-75" y="826"/>
      <point x="-48" y="832"/>
      <point x="-27" y="832" type="curve" smooth="yes"/>
      <point x="18" y="832"/>
      <point x="48" y="814"/>
      <point x="54" y="765" type="curve"/>
      <point x="-83" y="765" type="line"/>
      <point x="-83" y="723" type="line"/>
      <point x="55" y="723" type="line"/>
      <point x="48" y="674"/>
      <point x="21" y="646"/>
      <point x="-34" y="646" type="curve" smooth="yes"/>
      <point x="-66" y="646"/>
      <point x="-90" y="654"/>
      <point x="-114" y="662" type="curve"/>
      <point x="-114" y="615" type="line"/>
      <point x="-92" y="606"/>
      <point x="-69" y="601"/>
    </contour>
  </outline>
</glyph>
<glyph name="u1E00B" format="2">
  <unicode hex="1E00B"/>
  <outline>
    <contour>
      <point x="-91" y="605" type="line"/>
      <point x="91" y="605" type="line"/>
      <point x="91" y="674" type="line" smooth="yes"/>
      <point x="91" y="700"/>
      <point x="80" y="727"/>
      <point x="59" y="744" type="curve"/>
      <point x="80" y="763"/>
      <point x="91" y="791"/>
      <point x="91" y="817" type="curve" smooth="yes"/>
      <point x="91" y="874" type="line"/>
      <point x="-91" y="874" type="line"/>
      <point x="-91" y="816" type="line" smooth="yes"/>
      <point x="-91" y="791"/>
      <point x="-83" y="763"/>
      <point x="-61" y="744" type="curve"/>
      <point x="-83" y="727"/>
      <point x="-91" y="700"/>
      <point x="-91" y="674" type="curve" smooth="yes"/>
    </contour>
    <contour>
      <point x="-35" y="649" type="line"/>
      <point x="-35" y="674" type="line" smooth="yes"/>
      <point x="-35" y="701"/>
      <point x="-32" y="722"/>
      <point x="0" y="722" type="curve" smooth="yes"/>
      <point x="33" y="722"/>
      <point x="36" y="704"/>
      <point x="36" y="674" type="curve" smooth="yes"/>
      <point x="36" y="649" type="line"/>
    </contour>
    <contour>
      <point x="0" y="766" type="curve" smooth="yes"/>
      <point x="-32" y="766"/>
      <point x="-35" y="786"/>
      <point x="-35" y="815" type="curve" smooth="yes"/>
      <point x="-35" y="830" type="line"/>
      <point x="36" y="830" type="line"/>
      <point x="36" y="815" type="line" smooth="yes"/>
      <point x="36" y="783"/>
      <point x="33" y="766"/>
    </contour>
  </outline>
</glyph>
<glyph name="u1E00D" format="2">
  <unicode hex="1E00D"/>
  <outline>
    <contour>
      <point x="25" y="605" type="line"/>
      <point x="81" y="605" type="line"/>
      <point x="81" y="719" type="line" smooth="yes"/>
      <point x="81" y="752"/>
      <point x="71" y="765"/>
      <point x="37" y="765" type="curve" smooth="yes"/>
      <point x="-18" y="765" type="line"/>
      <point x="15" y="874" type="line"/>
      <point x="-37" y="874" type="line"/>
      <point x="-81" y="721" type="line"/>
      <point x="8" y="721" type="line" smooth="yes"/>
      <point x="20" y="721"/>
      <point x="25" y="718"/>
      <point x="25" y="703" type="curve" smooth="yes"/>
    </contour>
  </outline>
</glyph>
<glyph name="u1E013" format="2">
  <unicode hex="1E013"/>
  <outline>
    <contour>
      <point x="-54" y="605" type="curve" smooth="yes"/>
      <point x="52" y="605" type="line" smooth="yes"/>
      <point x="68" y="605"/>
      <point x="94" y="617"/>
      <point x="94" y="649" type="curve" smooth="yes"/>
      <point x="94" y="662" type="line" smooth="yes"/>
      <point x="94" y="714"/>
      <point x="56" y="762"/>
      <point x="-38" y="766" type="curve"/>
      <point x="-38" y="874" type="line"/>
      <point x="-94" y="874" type="line"/>
      <point x="-94" y="649" type="line" smooth="yes"/>
      <point x="-94" y="621"/>
      <point x="-89" y="605"/>
    </contour>
    <contour>
      <point x="-22" y="649" type="line" smooth="yes"/>
      <point x="-33" y="649"/>
      <point x="-38" y="655"/>
      <point x="-38" y="666" type="curve" smooth="yes"/>
      <point x="-38" y="723" type="line"/>
      <point x="29" y="719"/>
      <point x="39" y="687"/>
      <point x="39" y="668" type="curve" smooth="yes"/>
      <point x="39" y="656"/>
      <point x="37" y="649"/>
      <point x="27" y="649" type="curve" smooth="yes"/>
    </contour>
  </outline>
</glyph>
<glyph name="u1E014" format="2">
  <unicode hex="1E014"/>
  <outline>
    <contour>
      <point x="-91" y="605" type="line"/>
      <point x="91" y="605" type="line"/>
      <point x="91" y="684" type="line"/>
      <point x="130" y="706"/>
      <point x="146" y="741"/>
      <point x="146" y="775" type="curve" smooth="yes"/>
      <point x="146" y="823"/>
      <point x="107" y="879"/>
      <point x="0" y="879" type="curve" smooth="yes"/>
      <point x="-107" y="879"/>
      <point x="-145" y="823"/>
      <point x="-145" y="775" type="curve" smooth="yes"/>
      <point x="-145" y="741"/>
      <point x="-130" y="706"/>
      <point x="-91" y="684" type="curve"/>
    </contour>
    <contour>
      <point x="-35" y="649" type="line"/>
      <point x="-35" y="671" type="line" smooth="yes"/>
      <point x="-35" y="701"/>
      <point x="-33" y="727"/>
      <point x="0" y="727" type="curve" smooth="yes"/>
      <point x="33" y="727"/>
      <point x="36" y="705"/>
      <point x="36" y="672" type="curve" smooth="yes"/>
      <point x="36" y="649" type="line"/>
    </contour>
    <contour>
      <point x="76" y="733" type="curve"/>
      <point x="64" y="754"/>
      <point x="38" y="772"/>
      <point x="0" y="772" type="curve" smooth="yes"/>
      <point x="-41" y="772"/>
      <point x="-65" y="755"/>
      <point x="-77" y="734" type="curve"/>
      <point x="-86" y="747"/>
      <point x="-89" y="757"/>
      <point x="-89" y="776" type="curve" smooth="yes"/>
      <point x="-89" y="815"/>
      <point x="-53" y="834"/>
      <point x="0" y="834" type="curve" smooth="yes"/>
      <point x="52" y="834"/>
      <point x="89" y="813"/>
      <point x="89" y="776" type="curve" smooth="yes"/>
      <point x="89" y="757"/>
      <point x="87" y="744"/>
    </contour>
  </outline>
</glyph>
<glyph name="u1E015" format="2">
  <unicode hex="1E015"/>
  <outline>
    <contour>
      <point x="-164" y="605" type="curve" smooth="yes"/>
      <point x="-63" y="605" type="line" smooth="yes"/>
      <point x="-30" y="605"/>
      <point x="-25" y="618"/>
      <point x="-25" y="651" type="curve" smooth="yes"/>
      <point x="-25" y="830" type="line"/>
      <point x="25" y="830" type="line"/>
      <point x="25" y="651" type="line" smooth="yes"/>
      <point x="25" y="618"/>
      <point x="30" y="605"/>
      <point x="63" y="605" type="curve" smooth="yes"/>
      <point x="164" y="605" type="line" smooth="yes"/>
      <point x="198" y="605"/>
      <point x="203" y="618"/>
      <point x="203" y="651" type="curve" smooth="yes"/>
      <point x="203" y="829" type="line" smooth="yes"/>
      <point x="203" y="861"/>
      <point x="198" y="874"/>
      <point x="164" y="874" type="curve" smooth="yes"/>
      <point x="-164" y="874" type="line" smooth="yes"/>
      <point x="-198" y="874"/>
      <point x="-203" y="861"/>
      <point x="-203" y="829" type="curve" smooth="yes"/>
      <point x="-203" y="651" type="line" smooth="yes"/>
      <point x="-203" y="618"/>
      <point x="-198" y="605"/>
    </contour>
    <contour>
      <point x="-130" y="649" type="line" smooth="yes"/>
      <point x="-142" y="649"/>
      <point x="-147" y="652"/>
      <point x="-147" y="667" type="curve" smooth="yes"/>
      <point x="-147" y="813" type="line" smooth="yes"/>
      <point x="-147" y="828"/>
      <point x="-142" y="830"/>
      <point x="-130" y="830" type="curve" smooth="yes"/>
      <point x="-81" y="830" type="line"/>
      <point x="-81" y="667" type="line" smooth="yes"/>
      <point x="-81" y="652"/>
      <point x="-85" y="649"/>
      <point x="-98" y="649" type="curve" smooth="yes"/>
    </contour>
    <contour>
      <point x="98" y="649" type="line" smooth="yes"/>
      <point x="85" y="649"/>
      <point x="81" y="652"/>
      <point x="81" y="667" type="curve" smooth="yes"/>
      <point x="81" y="830" type="line"/>
      <point x="130" y="830" type="line" smooth="yes"/>
      <point x="142" y="830"/>
      <point x="147" y="828"/>
      <point x="147" y="813" type="curve" smooth="yes"/>
      <point x="147" y="667" type="line" smooth="yes"/>
      <point x="147" y="652"/>
      <point x="142" y="649"/>
      <point x="130" y="649" type="curve" smooth="yes"/>
    </contour>
  </outline>
</glyph>
<glyph name="u1E018" format="2">
  <unicode hex="1E018"/>
  <outline>
    <contour>
      <point x="-155" y="605" type="line"/>
      <point x="-104" y="605" type="line"/>
      <point x="-64" y="697" type="line"/>
      <point x="-12" y="697" type="line"/>
      <point x="-12" y="651" type="line" smooth="yes"/>
      <point x="-12" y="618"/>
      <point x="-8" y="605"/>
      <point x="26" y="605" type="curve" smooth="yes"/>
      <point x="163" y="605" type="line"/>
      <point x="163" y="719" type="line" smooth="yes"/>
      <point x="163" y="752"/>
      <point x="158" y="765"/>
      <point x="125" y="765" type="curve" smooth="yes"/>
      <point x="26" y="765" type="line" smooth="yes"/>
      <point x="2" y="765"/>
      <point x="-8" y="756"/>
      <point x="-11" y="741" type="curve"/>
      <point x="-44" y="741" type="line"/>
      <point x="13" y="874" type="line"/>
      <point x="-163" y="874" type="line"/>
      <point x="-163" y="830" type="line"/>
      <point x="-61" y="830" type="line"/>
    </contour>
    <contour>
      <point x="60" y="649" type="line" smooth="yes"/>
      <point x="48" y="649"/>
      <point x="43" y="651"/>
      <point x="43" y="667" type="curve" smooth="yes"/>
      <point x="43" y="703" type="line" smooth="yes"/>
      <point x="43" y="718"/>
      <point x="48" y="721"/>
      <point x="60" y="721" type="curve" smooth="yes"/>
      <point x="90" y="721" type="line" smooth="yes"/>
      <point x="103" y="721"/>
      <point x="107" y="718"/>
      <point x="107" y="703" type="curve" smooth="yes"/>
      <point x="107" y="649" type="line"/>
    </contour>
  </outline>
</glyph>
<glyph name="u1E01B" format="2">
  <unicode hex="1E01B"/>
  <outline>
    <contour>
      <point x="-88" y="605" type="line"/>
      <point x="88" y="605" type="line"/>
      <point x="88" y="675" type="line" smooth="yes"/>
      <point x="88" y="690"/>
      <point x="85" y="709"/>
      <point x="78" y="725" type="curve"/>
      <point x="119" y="725" type="line" smooth="yes"/>
      <point x="156" y="725"/>
      <point x="158" y="740"/>
      <point x="158" y="770" type="curve" smooth="yes"/>
      <point x="158" y="874" type="line"/>
      <point x="102" y="874" type="line"/>
      <point x="102" y="786" type="line" smooth="yes"/>
      <point x="102" y="773"/>
      <point x="100" y="769"/>
      <point x="85" y="769" type="curve" smooth="yes"/>
      <point x="28" y="769" type="line"/>
      <point x="28" y="874" type="line"/>
      <point x="-28" y="874" type="line"/>
      <point x="-28" y="769" type="line"/>
      <point x="-85" y="769" type="line" smooth="yes"/>
      <point x="-100" y="769"/>
      <point x="-102" y="773"/>
      <point x="-102" y="786" type="curve" smooth="yes"/>
      <point x="-102" y="874" type="line"/>
      <point x="-158" y="874" type="line"/>
      <point x="-158" y="770" type="line" smooth="yes"/>
      <point x="-158" y="740"/>
      <point x="-156" y="725"/>
      <point x="-119" y="725" type="curve" smooth="yes"/>
      <point x="-80" y="725" type="line"/>
      <point x="-86" y="709"/>
      <point x="-88" y="690"/>
      <point x="-88" y="675" type="curve" smooth="yes"/>
    </contour>
    <contour>
      <point x="-33" y="649" type="line"/>
      <point x="-33" y="670" type="line" smooth="yes"/>
      <point x="-33" y="700"/>
      <point x="-33" y="721"/>
      <point x="0" y="721" type="curve" smooth="yes"/>
      <point x="29" y="721"/>
      <point x="33" y="703"/>
      <point x="33" y="670" type="curve" smooth="yes"/>
      <point x="33" y="649" type="line"/>
    </contour>
  </outline>
</glyph>
<glyph name="u1E01D" format="2">
  <unicode hex="1E01D"/>
  <outline>
    <contour>
      <point x="-88" y="605" type="line"/>
      <point x="88" y="605" type="line"/>
      <point x="88" y="680" type="line" smooth="yes"/>
      <point x="88" y="697"/>
      <point x="88" y="709"/>
      <point x="81" y="723" type="curve"/>
      <point x="172" y="723" type="line"/>
      <point x="110" y="874" type="line"/>
      <point x="61" y="874" type="line"/>
      <point x="74" y="841" type="line"/>
      <point x="-74" y="841" type="line"/>
      <point x="-61" y="874" type="line"/>
      <point x="-110" y="874" type="line"/>
      <point x="-172" y="723" type="line"/>
      <point x="-81" y="723" type="line"/>
      <point x="-87" y="708"/>
      <point x="-88" y="697"/>
      <point x="-88" y="680" type="curve" smooth="yes"/>
    </contour>
    <contour>
      <point x="-33" y="649" type="line"/>
      <point x="-33" y="670" type="line" smooth="yes"/>
      <point x="-33" y="700"/>
      <point x="-33" y="721"/>
      <point x="0" y="721" type="curve" smooth="yes"/>
      <point x="29" y="721"/>
      <point x="33" y="703"/>
      <point x="33" y="670" type="curve" smooth="yes"/>
      <point x="33" y="649" type="line"/>
    </contour>
    <contour>
      <point x="-104" y="765" type="line"/>
      <point x="-90" y="800" type="line"/>
      <point x="-25" y="800" type="line"/>
      <point x="-25" y="765" type="line"/>
    </contour>
    <contour>
      <point x="25" y="765" type="line"/>
      <point x="25" y="800" type="line"/>
      <point x="91" y="800" type="line"/>
      <point x="104" y="765" type="line"/>
    </contour>
  </outline>
</glyph>
<glyph name="u1E021" format="2">
  <unicode hex="1E021"/>
  <outline>
    <contour>
      <point x="-179" y="605" type="line"/>
      <point x="180" y="605" type="line"/>
      <point x="54" y="851" type="line" smooth="yes"/>
      <point x="47" y="865"/>
      <point x="40" y="874"/>
      <point x="24" y="874" type="curve" smooth="yes"/>
      <point x="-23" y="874" type="line" smooth="yes"/>
      <point x="-39" y="874"/>
      <point x="-46" y="865"/>
      <point x="-53" y="851" type="curve" smooth="yes"/>
    </contour>
    <contour>
      <point x="-102" y="649" type="line"/>
      <point x="-68" y="714" type="line"/>
      <point x="-24" y="714" type="line"/>
      <point x="-24" y="649" type="line"/>
    </contour>
    <contour>
      <point x="26" y="649" type="line"/>
      <point x="26" y="714" type="line"/>
      <point x="69" y="714" type="line"/>
      <point x="103" y="649" type="line"/>
    </contour>
    <contour>
      <point x="-48" y="756" type="line"/>
      <point x="-14" y="823" type="line" smooth="yes"/>
      <point x="-11" y="829"/>
      <point x="-8" y="835"/>
      <point x="-5" y="835" type="curve" smooth="yes"/>
      <point x="7" y="835" type="line" smooth="yes"/>
      <point x="9" y="835"/>
      <point x="13" y="829"/>
      <point x="16" y="823" type="curve" smooth="yes"/>
      <point x="49" y="756" type="line"/>
    </contour>
  </outline>
</glyph>
<glyph name="u1E028" format="2">
  <unicode hex="1E028"/>
  <outline>
    <contour>
      <point x="152" y="601" type="curve" smooth="yes"/>
      <point x="176" y="601"/>
      <point x="189" y="603"/>
      <point x="204" y="605" type="curve"/>
      <point x="204" y="652" type="line"/>
      <point x="188" y="649"/>
      <point x="177" y="646"/>
      <point x="154" y="646" type="curve" smooth="yes"/>
      <point x="111" y="646"/>
      <point x="93" y="674"/>
      <point x="86" y="723" type="curve"/>
      <point x="182" y="723" type="line"/>
      <point x="182" y="765" type="line"/>
      <point x="87" y="765" type="line"/>
      <point x="93" y="814"/>
      <point x="114" y="832"/>
      <point x="147" y="832" type="curve" smooth="yes"/>
      <point x="165" y="832"/>
      <point x="181" y="829"/>
      <point x="195" y="826" type="curve"/>
      <point x="206" y="872" type="line"/>
      <point x="188" y="875"/>
      <point x="172" y="879"/>
      <point x="148" y="879" type="curve" smooth="yes"/>
      <point x="83" y="879"/>
      <point x="37" y="846"/>
      <point x="29" y="765" type="curve"/>
      <point x="-13" y="765" type="line"/>
      <point x="-13" y="836" type="line" smooth="yes"/>
      <point x="-13" y="866"/>
      <point x="-15" y="874"/>
      <point x="-58" y="874" type="curve" smooth="yes"/>
      <point x="-153" y="874" type="line" smooth="yes"/>
      <point x="-195" y="874"/>
      <point x="-205" y="844"/>
      <point x="-205" y="820" type="curve" smooth="yes"/>
      <point x="-205" y="784"/>
      <point x="-182" y="760"/>
      <point x="-143" y="744" type="curve"/>
      <point x="-181" y="726"/>
      <point x="-205" y="695"/>
      <point x="-205" y="659" type="curve" smooth="yes"/>
      <point x="-205" y="635"/>
      <point x="-201" y="605"/>
      <point x="-150" y="605" type="curve" smooth="yes"/>
      <point x="-63" y="605" type="line" smooth="yes"/>
      <point x="-21" y="605"/>
      <point x="-13" y="611"/>
      <point x="-13" y="643" type="curve" smooth="yes"/>
      <point x="-13" y="723" type="line"/>
      <point x="28" y="723" type="line"/>
      <point x="34" y="638"/>
      <point x="84" y="601"/>
    </contour>
    <contour>
      <point x="-135" y="649" type="line" smooth="yes"/>
      <point x="-148" y="649"/>
      <point x="-149" y="659"/>
      <point x="-149" y="670" type="curve" smooth="yes"/>
      <point x="-149" y="695"/>
      <point x="-126" y="720"/>
      <point x="-68" y="725" type="curve"/>
      <point x="-68" y="664" type="line" smooth="yes"/>
      <point x="-68" y="655"/>
      <point x="-70" y="649"/>
      <point x="-80" y="649" type="curve" smooth="yes"/>
    </contour>
    <contour>
      <point x="-68" y="765" type="line"/>
      <point x="-128" y="767"/>
      <point x="-149" y="790"/>
      <point x="-149" y="810" type="curve" smooth="yes"/>
      <point x="-149" y="821"/>
      <point x="-149" y="830"/>
      <point x="-129" y="830" type="curve" smooth="yes"/>
      <point x="-82" y="830" type="line" smooth="yes"/>
      <point x="-70" y="830"/>
      <point x="-68" y="825"/>
      <point x="-68" y="816" type="curve" smooth="yes"/>
    </contour>
  </outline>
</glyph>
<glyph name="u1E029" format="2">
  <unicode hex="1E029"/>
  <outline>
    <contour>
      <point x="212" y="601" type="curve" smooth="yes"/>
      <point x="236" y="601"/>
      <point x="250" y="603"/>
      <point x="264" y="605" type="curve"/>
      <point x="264" y="652" type="line"/>
      <point x="249" y="649"/>
      <point x="237" y="646"/>
      <point x="214" y="646" type="curve" smooth="yes"/>
      <point x="171" y="646"/>
      <point x="153" y="674"/>
      <point x="146" y="723" type="curve"/>
      <point x="242" y="723" type="line"/>
      <point x="242" y="765" type="line"/>
      <point x="147" y="765" type="line"/>
      <point x="153" y="814"/>
      <point x="174" y="832"/>
      <point x="207" y="832" type="curve" smooth="yes"/>
      <point x="225" y="832"/>
      <point x="241" y="829"/>
      <point x="255" y="826" type="curve"/>
      <point x="266" y="872" type="line"/>
      <point x="248" y="875"/>
      <point x="232" y="879"/>
      <point x="208" y="879" type="curve" smooth="yes"/>
      <point x="143" y="879"/>
      <point x="97" y="846"/>
      <point x="89" y="765" type="curve"/>
      <point x="70" y="765" type="line"/>
      <point x="11" y="874" type="line"/>
      <point x="-188" y="874" type="line"/>
      <point x="-265" y="723" type="line"/>
      <point x="-167" y="723" type="line"/>
      <point x="-172" y="713"/>
      <point x="-176" y="704"/>
      <point x="-176" y="694" type="curve" smooth="yes"/>
      <point x="-176" y="605" type="line"/>
      <point x="1" y="605" type="line"/>
      <point x="1" y="694" type="line" smooth="yes"/>
      <point x="1" y="703"/>
      <point x="-2" y="713"/>
      <point x="-7" y="723" type="curve"/>
      <point x="88" y="723" type="line"/>
      <point x="94" y="638"/>
      <point x="145" y="601"/>
    </contour>
    <contour>
      <point x="-120" y="649" type="line"/>
      <point x="-120" y="670" type="line" smooth="yes"/>
      <point x="-120" y="700"/>
      <point x="-120" y="721"/>
      <point x="-87" y="721" type="curve" smooth="yes"/>
      <point x="-58" y="721"/>
      <point x="-55" y="703"/>
      <point x="-55" y="670" type="curve" smooth="yes"/>
      <point x="-55" y="649" type="line"/>
    </contour>
    <contour>
      <point x="-192" y="765" type="line"/>
      <point x="-157" y="832" type="line"/>
      <point x="-112" y="832" type="line"/>
      <point x="-112" y="765" type="line"/>
    </contour>
    <contour>
      <point x="-62" y="765" type="line"/>
      <point x="-62" y="832" type="line"/>
      <point x="-20" y="832" type="line"/>
      <point x="15" y="765" type="line"/>
    </contour>
  </outline>
</glyph>
<glyph name="u1E02A" format="2">
  <unicode hex="1E02A"/>
  <outline>
    <contour>
      <point x="-1" y="601" type="curve" smooth="yes"/>
      <point x="73" y="601"/>
      <point x="121" y="643"/>
      <point x="126" y="723" type="curve"/>
      <point x="134" y="723" type="line" smooth="yes"/>
      <point x="146" y="723"/>
      <point x="148" y="721"/>
      <point x="148" y="710" type="curve" smooth="yes"/>
      <point x="148" y="701" type="line"/>
      <point x="196" y="701" type="line"/>
      <point x="196" y="735" type="line" smooth="yes"/>
      <point x="196" y="761"/>
      <point x="187" y="767"/>
      <point x="157" y="767" type="curve" smooth="yes"/>
      <point x="125" y="767" type="line"/>
      <point x="117" y="841"/>
      <point x="69" y="879"/>
      <point x="0" y="879" type="curve" smooth="yes"/>
      <point x="-73" y="879"/>
      <point x="-119" y="841"/>
      <point x="-126" y="767" type="curve"/>
      <point x="-156" y="767" type="line" smooth="yes"/>
      <point x="-187" y="767"/>
      <point x="-196" y="761"/>
      <point x="-196" y="735" type="curve" smooth="yes"/>
      <point x="-196" y="701" type="line"/>
      <point x="-149" y="701" type="line"/>
      <point x="-149" y="710" type="line" smooth="yes"/>
      <point x="-149" y="721"/>
      <point x="-146" y="723"/>
      <point x="-134" y="723" type="curve" smooth="yes"/>
      <point x="-126" y="723" type="line"/>
      <point x="-121" y="643"/>
      <point x="-70" y="601"/>
    </contour>
    <contour>
      <point x="0" y="645" type="curve" smooth="yes"/>
      <point x="-44" y="645"/>
      <point x="-65" y="669"/>
      <point x="-68" y="723" type="curve"/>
      <point x="68" y="723" type="line"/>
      <point x="65" y="669"/>
      <point x="43" y="645"/>
    </contour>
    <contour>
      <point x="-67" y="767" type="line"/>
      <point x="-62" y="814"/>
      <point x="-42" y="833"/>
      <point x="0" y="833" type="curve" smooth="yes"/>
      <point x="40" y="833"/>
      <point x="62" y="814"/>
      <point x="67" y="767" type="curve"/>
    </contour>
  </outline>
</glyph>
